<svg id="Component_1_1" data-name="Component 1 – 1" xmlns="http://www.w3.org/2000/svg" xmlns:xlink="http://www.w3.org/1999/xlink" width="83.883" height="108.449" viewBox="0 0 83.883 108.449">
  <defs>
    <clipPath id="clip-path">
      <path id="Path_5" data-name="Path 5" d="M89,60.379,33.651,77.232a2.1,2.1,0,0,0-.84,3.535L63.789,110.33a2.1,2.1,0,0,0,3.316-.543L91.48,63.37a2.108,2.108,0,0,0-1.845-3.087A2.163,2.163,0,0,0,89,60.379Z" fill="none" clip-rule="evenodd"/>
    </clipPath>
    <linearGradient id="linear-gradient" x1="0.477" y1="0.168" x2="0.525" y2="0.854" gradientUnits="objectBoundingBox">
      <stop offset="0" stop-color="#952328"/>
      <stop offset="1" stop-color="#952328"/>
    </linearGradient>
    <clipPath id="clip-path-2">
      <path id="Path_8" data-name="Path 8" d="M76.734,67.8l-.068,7.589-5.318.369-2.662-2.726-1.593-3.861-.6-1.216-3.229-3.678.859-6.169-.17-2.6L59.72,46.638l-.124-2.91,1.624-.579.691,3.515,2.447-4.394a13.714,13.714,0,0,0-4.836-.293l-.258-6.114L61.1,35.8l8.261,1.579,3.407,8.76L75.459,47.7c.618.289.764.235,1.039.934C79.447,56.083,76.734,67.8,76.734,67.8Z" fill="none" clip-rule="evenodd"/>
    </clipPath>
    <linearGradient id="linear-gradient-2" x1="0.85" y1="0.449" x2="0.226" y2="0.54" gradientUnits="objectBoundingBox">
      <stop offset="0" stop-color="#fce1ad"/>
      <stop offset="1" stop-color="#fce1ad"/>
    </linearGradient>
    <clipPath id="clip-path-3">
      <path id="Path_36" data-name="Path 36" d="M47.79,46.1s9.351-5.711,16.569-3.828l-2.448,4.393-.69-3.515L56.639,44.78,46.1,50.053l4.079-3.767Z" fill="none" clip-rule="evenodd"/>
    </clipPath>
    <linearGradient id="linear-gradient-3" y1="0.5" x2="1" y2="0.5" gradientUnits="objectBoundingBox">
      <stop offset="0" stop-color="#fff"/>
      <stop offset="1" stop-color="#fce1ad"/>
    </linearGradient>
    <clipPath id="clip-path-4">
      <path id="Path_46" data-name="Path 46" d="M22.625,108.5h7.2a21.977,21.977,0,0,0,4.692-.368c.074-.018.145-.042.217-.061h.026l-.013.039H34.8l-.013.039h.052l-.013.038h.053l-.013.039h.051l-.013.04h.052l-.013.04H35l-.012.038h.052l-.013.039h.052l-.013.039h.052l-.014.039h.052l-.012.039H56.287a21.984,21.984,0,0,0,4.692-.368,4.529,4.529,0,0,0,2.416-1.389h.027l-.007.039h.046l-.007.039H63.5l-.008.039h.047l-.007.039h.047l-.008.039h.046l-.006.039h.046l-.007.039h.045l-.007.039h.046l-.006.04h.045l-.007.038h.047l-.007.04h.045l-.006.038h.046l-.007.04h.045l-.006.038h.046l-.007.04h.045l-.007.038h.047l-.007.04h.045l-.006.038h.046l-.006.04h.045l-.007.038H64.2l-.007.04h.046l-.008.039h.047l-.007.039h.047l-.007.038h.045l-.006.04H64.4l-.007.039h.046l-.007.04h.046l-.007.039h.046l-.007.038h.047l-.007.039h.045l-.006.039h.046l-.008.039h.046l-.006.04h.046l-.007.039h.045l-.007.039h.047l-.007.039h.046l-.007.038h.046l-.007.039H64.9l-.006.04h.046l-.007.04h.046l-.007.038h.046l-.007.039h.046l-.007.039H65.1l-.006.039h.044l-.006.039h7.931l.692-3.96.364-.635-.473,2.72h.047l-.007.04h.045l-.007.039h.046l-.007.039h.046l-.006.039h.046l-.008.039h.046l-.007.039h.047l-.008.039h.046l-.006.039h.046l-.007.039h.045l-.007.039h.047l-.007.039h.046l-.007.04h.046l-.006.038H74.2l-.006.04h.046l-.007.038h.046l-.007.04h.046l-.007.038h.046l-.007.04H74.4l-.006.038h.045l-.007.04h.046l-.006.038h.046l-.008.04h.046l-.007.038h.047l-.007.04h.045l-.006.039h.046l-.007.039h.045l-.006.038h.046l-.007.04h.045l-.007.039h.047l-.007.04h.046l-.007.039H74.9l-.006.038h.044l-.006.039h.046l-.007.039h.045l-.006.039h.046l-.007.04H75.1l-.006.039h.045l-.006.039h.045l-.007.039h.046l-.006.038h.046l-.008.039h.046l-.007.04h.047l-.008.04h.046l-.006.038h.046l-.007.039h.045l-.006.039h.046l-.008.039h.046l-.007.039H98.794l2.756-15.761H101.5l.008-.04h-.047l.007-.038h-.046l.007-.039h-.045l.006-.039h-.045l.007-.039h-.046l.006-.039h-.046l.008-.04h-.047l.007-.038h-.046l.006-.04h-.044l.006-.038h-.046l.007-.039h-.045l.006-.039h-.047l.008-.04H101L101,92.2h-.046l.007-.039h-.046l.007-.039h-.046l.006-.038h-.045l.007-.04H100.8l.008-.04h-.046l.007-.038h-.047l.007-.039h-.045l.006-.039h-.045l.006-.039h-.046l.008-.039h-.047l.007-.039h-.046l.007-.04h-.046l.007-.038h-.046l.007-.04h-.045l.006-.038h-.046l.007-.039h-.046l.007-.039h-.047l.008-.04h-.046l.007-.039h-.046l.007-.039h-.046l.006-.038h-.045l.006-.039H100.1l.007-.039h-.047l.007-.041h-.045l.006-.038H99.98l.007-.039h-.045l.007-.039H99.9l.006-.039h-.045l.007-.039h-.047l.007-.039h-.046l.007-.039h-.046l.007-.039h-.045l.007-.039h-.046l.006-.039H83.069l0,.019H61.4l.11.442a5.976,5.976,0,0,0-1-.241,27.949,27.949,0,0,0-3.914-.2H49.941l-.107.62v-.034h-.04v-.039h-.04v-.04h-.041v-.038h-.04v-.039h-.04v-.039H49.6V91.24h-.04V91.2h-.041v-.041h-.039v-.038h-.04v-.04H49.4v-.038h-.039v-.039h-.04v-.039h-.04v-.04h-.039v-.039H38.358l-.772,2.387v0l-.01-.01a.268.268,0,0,0-.03-.028l-.008-.011-.031-.029-.008-.01c-.01-.011-.021-.019-.03-.029l-.009-.009c-.01-.011-.022-.02-.031-.03l-.009-.01c-.009-.01-.02-.019-.03-.029l-.009-.01c-.009-.01-.02-.019-.03-.029l-.009-.011L37.311,93l-.008-.01-.031-.029-.008-.01c-.01-.011-.022-.02-.03-.029l-.009-.01-.032-.029-.008-.01-.03-.029-.009-.011-.031-.029-.008-.01-.03-.028-.008-.011-.031-.028-.009-.011c-.01-.01-.022-.019-.03-.029l-.009-.01c-.009-.01-.021-.018-.031-.029l-.009-.01c-.009-.01-.02-.019-.029-.029l-.009-.01-.031-.028-.008-.011-.03-.029-.009-.01-.031-.028-.008-.011-.031-.029-.008-.01c-.009-.01-.021-.019-.031-.029l-.009-.009c-.008-.011-.021-.02-.03-.03l-.009-.011-.03-.027-.009-.011-.029-.029-.01-.011-.029-.028-.009-.01a4.251,4.251,0,0,0-2.513-1.159,27.958,27.958,0,0,0-3.914-.2H23.483L20.75,106.629H20.8l-.006.04h.045l-.006.039h.046l-.007.039h.046l-.007.039h.046l-.007.039h.045l-.006.039h.046l-.006.039h.044l-.006.039h.046l-.006.039h.045l-.007.039h.046l-.006.039h.045l-.007.04h.046l-.007.038H21.3l-.007.04h.047l-.008.038h.047l-.007.04h.046l-.007.038h.045l-.007.04H21.5l-.006.038h.046l-.008.04h.047l-.007.038h.046l-.007.04h.045l-.006.038h.046l-.006.04h.044l-.006.039h.046l-.007.039h.046l-.007.038h.046l-.007.04h.046l-.007.039h.046l-.006.04h.045l-.007.039h.046l-.007.038h.046l-.007.039h.047l-.007.039h.045l-.006.039h.045l-.006.04H22.2l-.007.039h.046l-.006.039h.046l-.008.039h.047l-.007.038h.046l-.007.039H22.4l-.006.04h.046l-.007.04h.046l-.007.038h.047l-.009.039h.047l-.007.039h.046l-.006.039h.045Z" fill="none" clip-rule="evenodd"/>
    </clipPath>
    <linearGradient id="linear-gradient-4" x1="-3.081" y1="0.5" x2="1" y2="0.5" gradientUnits="objectBoundingBox">
      <stop offset="0" stop-color="#ef5613"/>
      <stop offset="0.01" stop-color="#ed5513"/>
      <stop offset="0.02" stop-color="#ea5413"/>
      <stop offset="0.03" stop-color="#e85313"/>
      <stop offset="0.04" stop-color="#e75113"/>
      <stop offset="0.05" stop-color="#e55113"/>
      <stop offset="0.06" stop-color="#e45013"/>
      <stop offset="0.07" stop-color="#e24e13"/>
      <stop offset="0.08" stop-color="#e14e13"/>
      <stop offset="0.09" stop-color="#df4d13"/>
      <stop offset="0.1" stop-color="#de4c13"/>
      <stop offset="0.11" stop-color="#dc4b13"/>
      <stop offset="0.12" stop-color="#db4a13"/>
      <stop offset="0.13" stop-color="#da4913"/>
      <stop offset="0.14" stop-color="#d84813"/>
      <stop offset="0.15" stop-color="#d74713"/>
      <stop offset="0.16" stop-color="#d64613"/>
      <stop offset="0.17" stop-color="#d44613"/>
      <stop offset="0.18" stop-color="#d34513"/>
      <stop offset="0.19" stop-color="#d14313"/>
      <stop offset="0.2" stop-color="#d04312"/>
      <stop offset="0.21" stop-color="#cf4212"/>
      <stop offset="0.22" stop-color="#ce4212"/>
      <stop offset="0.23" stop-color="#cc4112"/>
      <stop offset="0.24" stop-color="#cb4012"/>
      <stop offset="0.25" stop-color="#ca3f12"/>
      <stop offset="0.26" stop-color="#c93e12"/>
      <stop offset="0.27" stop-color="#c83d12"/>
      <stop offset="0.28" stop-color="#c63d12"/>
      <stop offset="0.29" stop-color="#c53c12"/>
      <stop offset="0.3" stop-color="#c43b12"/>
      <stop offset="0.31" stop-color="#c23a12"/>
      <stop offset="0.32" stop-color="#c13912"/>
      <stop offset="0.33" stop-color="#c03811"/>
      <stop offset="0.34" stop-color="#be3811"/>
      <stop offset="0.35" stop-color="#bd3711"/>
      <stop offset="0.36" stop-color="#bc3611"/>
      <stop offset="0.37" stop-color="#ba3511"/>
      <stop offset="0.38" stop-color="#b93411"/>
      <stop offset="0.39" stop-color="#bb3511"/>
      <stop offset="0.4" stop-color="#bc3611"/>
      <stop offset="0.41" stop-color="#be3711"/>
      <stop offset="0.42" stop-color="#bf3811"/>
      <stop offset="0.43" stop-color="#c13912"/>
      <stop offset="0.44" stop-color="#c33a12"/>
      <stop offset="0.45" stop-color="#c43b12"/>
      <stop offset="0.46" stop-color="#c63c12"/>
      <stop offset="0.47" stop-color="#c73d12"/>
      <stop offset="0.48" stop-color="#c93e12"/>
      <stop offset="0.49" stop-color="#cb3f12"/>
      <stop offset="0.5" stop-color="#cb4012"/>
      <stop offset="0.51" stop-color="#cd4112"/>
      <stop offset="0.52" stop-color="#ce4212"/>
      <stop offset="0.53" stop-color="#d04312"/>
      <stop offset="0.54" stop-color="#d14313"/>
      <stop offset="0.55" stop-color="#d34513"/>
      <stop offset="0.56" stop-color="#d54613"/>
      <stop offset="0.57" stop-color="#d74713"/>
      <stop offset="0.58" stop-color="#d84813"/>
      <stop offset="0.59" stop-color="#d94913"/>
      <stop offset="0.6" stop-color="#db4a13"/>
      <stop offset="0.61" stop-color="#dd4b13"/>
      <stop offset="0.62" stop-color="#de4c13"/>
      <stop offset="0.63" stop-color="#e14e13"/>
      <stop offset="0.64" stop-color="#e14e13"/>
      <stop offset="0.65" stop-color="#e45013"/>
      <stop offset="0.66" stop-color="#e65113"/>
      <stop offset="0.67" stop-color="#e75213"/>
      <stop offset="0.68" stop-color="#ea5313"/>
      <stop offset="0.69" stop-color="#eb5413"/>
      <stop offset="0.7" stop-color="#ef5613"/>
      <stop offset="0.71" stop-color="#eb5413"/>
      <stop offset="0.72" stop-color="#e85313"/>
      <stop offset="0.73" stop-color="#e75113"/>
      <stop offset="0.74" stop-color="#e55013"/>
      <stop offset="0.75" stop-color="#e34f13"/>
      <stop offset="0.76" stop-color="#e14e13"/>
      <stop offset="0.77" stop-color="#de4c13"/>
      <stop offset="0.78" stop-color="#dc4b13"/>
      <stop offset="0.79" stop-color="#db4a13"/>
      <stop offset="0.8" stop-color="#d94913"/>
      <stop offset="0.81" stop-color="#d74713"/>
      <stop offset="0.82" stop-color="#d54613"/>
      <stop offset="0.83" stop-color="#d34513"/>
      <stop offset="0.84" stop-color="#d14313"/>
      <stop offset="0.85" stop-color="#d04312"/>
      <stop offset="0.86" stop-color="#ce4212"/>
      <stop offset="0.87" stop-color="#cc4112"/>
      <stop offset="0.88" stop-color="#cb3f12"/>
      <stop offset="0.89" stop-color="#c93e12"/>
      <stop offset="0.9" stop-color="#c83d12"/>
      <stop offset="0.91" stop-color="#c63c12"/>
      <stop offset="0.92" stop-color="#c43b12"/>
      <stop offset="0.93" stop-color="#c23912"/>
      <stop offset="0.94" stop-color="#c03911"/>
      <stop offset="0.95" stop-color="#be3811"/>
      <stop offset="0.96" stop-color="#bd3711"/>
      <stop offset="0.97" stop-color="#bb3511"/>
      <stop offset="0.98" stop-color="#b93411"/>
      <stop offset="0.99" stop-color="#b93411"/>
      <stop offset="1" stop-color="#b93411"/>
    </linearGradient>
  </defs>
  <path id="Path_2" data-name="Path 2" d="M101.805,59.606,68.4,123.213c-1.291,2.236-3.651,2.152-5.811,0L20.71,83.243l-.382-.367a2.683,2.683,0,0,1-.261-3.148c.028-.047.058-.093.091-.138.06-.08.12-.161.187-.239a.239.239,0,0,1,.04-.045,5.491,5.491,0,0,1,2.663-1.64L98.9,54.573a3.356,3.356,0,0,1,2.906,5.033" transform="translate(-18.396 -16.409)" fill="#96999c"/>
  <path id="Path_3" data-name="Path 3" d="M65.091,121.285a5.314,5.314,0,0,1-3.628-1.8L19.591,79.526l-.4-.386-.016-.019a3.207,3.207,0,0,1-.311-3.758c.038-.062.077-.124.122-.184.058-.078.121-.162.191-.244a.765.765,0,0,1,.074-.085,6.009,6.009,0,0,1,2.9-1.78L98.061,49.957h.078a3.877,3.877,0,0,1,3.357,5.815L68.1,119.36a3.459,3.459,0,0,1-3.011,1.925" transform="translate(-18.396 -16.409)" fill="#fff"/>
  <path id="Path_4" data-name="Path 4" d="M101.045,55.511l-33.4,63.607c-1.291,2.237-3.65,2.153-5.81,0L19.949,79.149l-.382-.367a2.689,2.689,0,0,1-.26-3.148A1.564,1.564,0,0,1,19.4,75.5c.06-.08.12-.161.187-.24a.268.268,0,0,1,.039-.044,5.494,5.494,0,0,1,2.664-1.64L98.139,50.478a3.356,3.356,0,0,1,2.906,5.033" transform="translate(-18.396 -16.409)" fill="#7b1c20"/>
  <g id="Group_2" data-name="Group 2" transform="translate(-18.396 -16.409)">
    <g id="Group_1" data-name="Group 1" clip-path="url(#clip-path)">
      <rect id="Rectangle_1" data-name="Rectangle 1" width="60.598" height="51.013" transform="translate(31.646 60.283)" fill="url(#linear-gradient)"/>
    </g>
  </g>
  <path id="Path_6" data-name="Path 6" d="M66.379,120.144c.059.06.119.116.179.174-1.315.88-3.08.443-4.727-1.2L19.95,79.149l-.383-.367a2.689,2.689,0,0,1-.26-3.148A1.429,1.429,0,0,1,19.4,75.5c.06-.081.12-.162.187-.24a.268.268,0,0,1,.039-.044,5.507,5.507,0,0,1,2.664-1.641L98.139,50.479c1.234,0-71.3,24.119-71.3,24.119a5.484,5.484,0,0,0-2.663,1.64.2.2,0,0,0-.039.044c-.068.078-.128.158-.187.239-.034.045-.063.092-.092.138a2.689,2.689,0,0,0,.26,3.148l.383.367Z" transform="translate(-18.396 -16.409)" fill="#7b1c20"/>
  <path id="Path_7" data-name="Path 7" d="M76.653,76.788l.081-8.992s2.712-11.712-.236-19.161c-.276-.7-.421-.645-1.039-.933l-2.692-1.565-3.43-8.652L61.1,35.8l-9.153.323-13.69,5.752-2.107,6.075,3.471,7.316,4.527,8.645,5.369,12.23L58.832,81l5.265.972,6.885-3.888Z" transform="translate(-18.396 -16.409)" fill="#f6b988"/>
  <g id="Group_4" data-name="Group 4" transform="translate(-18.396 -16.409)">
    <g id="Group_3" data-name="Group 3" clip-path="url(#clip-path-2)">
      <rect id="Rectangle_2" data-name="Rectangle 2" width="20.182" height="39.956" transform="translate(59.264 35.798)" fill="url(#linear-gradient-2)"/>
    </g>
  </g>
  <path id="Path_9" data-name="Path 9" d="M42.576,77.567l-3.32-1.083L33.58,64.839l-.905-5.361,3.829-.767s2.577,4.6,2.716,4.8,4.107,8.634,4.107,8.634a21.143,21.143,0,0,1,1.253,3.62,9.143,9.143,0,0,1-.7,2.3Z" transform="translate(-18.396 -16.409)" fill="#e3a06e"/>
  <path id="Path_10" data-name="Path 10" d="M43.005,77.255l-3.321-1.083L34.009,64.527l-.9-5.361,3.829-.766s2.576,4.595,2.715,4.8,4.107,8.633,4.107,8.633a21.163,21.163,0,0,1,1.254,3.62,9.143,9.143,0,0,1-.7,2.3Z" transform="translate(-18.396 -16.409)" fill="#ffcd9c"/>
  <path id="Path_11" data-name="Path 11" d="M42.288,74.629a1.346,1.346,0,0,1-2.136.416,7.688,7.688,0,0,1-.67-.623l-3.55-8.4.372-1.243,1.869.687-1.413-.046-.216.709,3.409,7.354,1.611.211-.029-.954Z" transform="translate(-18.396 -16.409)" fill="#e3a06e"/>
  <path id="Path_12" data-name="Path 12" d="M38.766,67.274l-.174.826L40.3,71.712l.72.409Z" transform="translate(-18.396 -16.409)" fill="#e3a06e"/>
  <path id="Path_13" data-name="Path 13" d="M61.7,34.772l-.421,1.066L61.1,35.8l-1.837.065.178,4.223-4.9-.47L42.692,43.084l-3.54,3.106,5.418,1.59-2.746,6.789,6.791,13.437.578,3.034L59.7,79.412l-6.281,1.334-5.135-8.54-4.345-8.581L36.624,50.308l-.505-5.78,2.456-2.672,4.479-1.733,5.923-2.313Z" transform="translate(-18.396 -16.409)" fill="#e3a06e"/>
  <path id="Path_14" data-name="Path 14" d="M65.044,73.242a9.036,9.036,0,0,1-3.94,1.92c-2.914.512-5.688.443-7.518-2.288a3.926,3.926,0,0,0,2.874.732c3.906-.033,4.168-3.049,7.063-5.083,1.13-.8,3.35-.742,3.8,1.006.263,1.02-1.581,3.171-2.282,3.713m4.769-2.468a7.1,7.1,0,0,0,3.43-.236c2.184-.793,4.043-1.925,4.218-4.5a3.083,3.083,0,0,1-1.667,1.623c-2.67,1.507-4.027-.442-6.794-.693-1.08-.1-2.569.807-2.192,2.174C67.028,69.938,69.123,70.679,69.813,70.774Z" transform="translate(-18.396 -16.409)" fill="#e3a06e"/>
  <path id="Path_15" data-name="Path 15" d="M67.062,68.895c-.453-1.748-2.673-1.8-3.8-1.006-2.9,2.034-3.157,5.05-7.063,5.083a3.923,3.923,0,0,1-2.873-.732c1.83,2.731,4.6,2.8,7.517,2.288a9.018,9.018,0,0,0,3.939-1.921c.7-.541,2.546-2.691,2.283-3.712" transform="translate(-18.396 -16.409)" fill="#191920"/>
  <path id="Path_16" data-name="Path 16" d="M66.544,68.508c-.377-1.367,1.112-2.271,2.192-2.173,2.766.25,4.124,2.2,6.793.692A3.078,3.078,0,0,0,77.2,65.4c-.176,2.574-2.034,3.707-4.218,4.5a7.062,7.062,0,0,1-3.43.236c-.69-.094-2.785-.834-3.005-1.631" transform="translate(-18.396 -16.409)" fill="#191920"/>
  <path id="Path_17" data-name="Path 17" d="M66.544,68.508c-.377-1.367,1.112-2.271,2.192-2.173,2.766.25,4.124,2.2,6.793.692A3.078,3.078,0,0,0,77.2,65.4c-.176,2.574-2.034,3.707-4.218,4.5a7.062,7.062,0,0,1-3.43.236c-.69-.094-2.785-.834-3.005-1.631" transform="translate(-18.396 -16.409)" fill="#191920"/>
  <path id="Path_18" data-name="Path 18" d="M78.034,73.365c-.135,1.417-.2,2.859-.4,4.268L71.889,90.009a4.984,4.984,0,0,1-3.26,1.207L57.977,89.023l-14.511-7.7c-.007-.024-.842-3.714-.845-3.739-.021-.132.959-2.782.959-2.782L38.734,64.665a2.073,2.073,0,0,0-1.19-1.07c-1.15-.392-3.146-.707-3.945,1.421L28.527,49.558l-.014.007c-.01-.31-.014-.618-.014-.918,0-8.98,4.3-13.765,6.077-15.366,6.622-6.907,19.123-9.624,26.28-7.516,9.044,2.667,12.233,9.207,12.282,9.308a2.653,2.653,0,0,0-2.4-.278,39.6,39.6,0,0,1,2.309,7.574v4.989a32.982,32.982,0,0,0-4.377-9.447c-.014-.018-.026-.035-.038-.053l-.941-.32c-.011.019-.019.031-.019.031-.214-.077-.429-.153-.644-.222C55.636,33.6,44.612,40.285,44.612,40.285h0l-3.244,1.87-3.544,4.628,5.566,1.727-3.742,6.719L40.561,57l.778,1.5,7.039,13.618L59.7,79.412l7.389-4.319,1.266-2.806,2.669,1.847,4.8.577.959-6.912Z" transform="translate(-18.396 -16.409)" fill="#191920"/>
  <path id="Path_19" data-name="Path 19" d="M55.425,54.917a2.065,2.065,0,1,0,.708,4,1.107,1.107,0,0,1-.033-.259,1.07,1.07,0,0,1,1.07-1.07,1.148,1.148,0,0,1,.22.023,2.064,2.064,0,0,0-1.965-2.695m-.918,1.513a.294.294,0,1,1,.293-.293A.293.293,0,0,1,54.507,56.43Z" transform="translate(-18.396 -16.409)" fill="#191920"/>
  <path id="Path_20" data-name="Path 20" d="M72.712,51.2a2.065,2.065,0,0,0,0,4.129,2.04,2.04,0,0,0,.832-.176.792.792,0,0,1-.157-.475A.8.8,0,0,1,74.636,54a2.035,2.035,0,0,0,.14-.742A2.065,2.065,0,0,0,72.712,51.2m-.918,1.513a.293.293,0,1,1,.293-.293A.293.293,0,0,1,71.794,52.709Z" transform="translate(-18.396 -16.409)" fill="#191920"/>
  <path id="Path_21" data-name="Path 21" d="M47.3,59.521a12.158,12.158,0,0,1,13.571-5.316,1.032,1.032,0,0,1-.4,1.274S54.084,52.392,47.3,59.521" transform="translate(-18.396 -16.409)" fill="#191920"/>
  <path id="Path_22" data-name="Path 22" d="M49.753,59.924s7.3,2.158,10.82-3.008c0,0-1.931,3.238-10.82,3.008" transform="translate(-18.396 -16.409)" fill="#191920"/>
  <path id="Path_23" data-name="Path 23" d="M77.73,51.9c-.312-.081-.615-.147-.913-.2-5.661-1.042-8.658,2.234-8.658,2.234C67.406,53.849,67.4,53,67.4,53A10.745,10.745,0,0,1,76.7,51.1c.358.092.694.2,1.009.313.009.163.014.328.019.491" transform="translate(-18.396 -16.409)" fill="#191920"/>
  <path id="Path_24" data-name="Path 24" d="M77.758,54.439c0,.081,0,.159-.008.238-.183.11-.39.23-.619.351-1.91,1.019-5.324,2.238-8.447.227.564.322,3.038,1.4,8.453-.581.2-.072.41-.151.621-.235" transform="translate(-18.396 -16.409)" fill="#191920"/>
  <path id="Path_25" data-name="Path 25" d="M63.627,58.478s-1.729,6.168-1.415,6.915a13.491,13.491,0,0,0,3.223.9l.746-.747-1.588-.9a1.454,1.454,0,0,1-.734-1.2Z" transform="translate(-18.396 -16.409)" fill="#e3a06e"/>
  <path id="Path_26" data-name="Path 26" d="M68.667,37.911c-.014-.018-.026-.035-.038-.053l-.941-.32-.019.031c-.214-.077-.429-.153-.644-.222C65.42,33.841,60.1,29.868,60.009,29.8c5.147,1.839,7.866,6.532,8.658,8.111" transform="translate(-18.396 -16.409)" fill="#5d595a"/>
  <path id="Path_27" data-name="Path 27" d="M61.5,34.424a31.325,31.325,0,0,0-16.778,3.835s5.912-4.474,9.747-4.713c0,0-11.824.4-15.739,5.991,0,0,3.2-7.03,17.657-7.11a19.71,19.71,0,0,0-10.785-.72s11.5-3.754,15.9,2.717" transform="translate(-18.396 -16.409)" fill="#5d595a"/>
  <path id="Path_28" data-name="Path 28" d="M41.956,74.392a1.345,1.345,0,0,1-2.136.415,7.961,7.961,0,0,1-.669-.621l-3.551-8.4.372-1.241,1.87.686-1.414-.046-.216.71,3.409,7.353,1.611.21L41.2,72.5Z" transform="translate(-18.396 -16.409)" fill="#191920"/>
  <path id="Path_29" data-name="Path 29" d="M38.434,67.037l-.174.826,1.709,3.611.719.41Z" transform="translate(-18.396 -16.409)" fill="#191920"/>
  <path id="Path_30" data-name="Path 30" d="M40.56,57.005,34.527,60a.776.776,0,0,0-.524.7s-.27,1.856-.325,3.485a2.872,2.872,0,0,1,.868-1.067,3.131,3.131,0,0,1,.8-2.09l5.993-2.519Z" transform="translate(-18.396 -16.409)" fill="#5d595a"/>
  <path id="Path_31" data-name="Path 31" d="M77.638,50.291c-.111-.6-.16-.884-.291-1.445-.052-.285-.117-.309-.322-.306a52.538,52.538,0,0,0-5.925.345c-4.047.787-6,2.884-8.1,3.31-1.944.394-5.209-.757-8.826-.054-2.754.535-6.723,2.025-7.473,2.173-.406.123-.452.259-.4.672.048.372.18.937.312,1.5.046.2.131.394.366.388.571.09.543.474.794,1.051a36.882,36.882,0,0,0,2.292,4.886c1.494,2.182,4.332,2.323,6.137,1.869,4.786-1.2,5.486-4.78,5.9-8.208.11-1.283.193-2.874,1.139-3.072,1.261-.262,1.612,1.3,2.222,2.328,2.2,3.9,4.067,5.637,7.754,4.708,2.654-.667,3.973-2.027,4.1-5.046,0-.078.008-.156.008-.237a.3.3,0,0,0,0-.042c.009-.818,0-1.657-.03-2.5-.005-.162-.011-.327-.018-.49,0-.084-.006-.166-.011-.251-.016-.586-.185-1.173.243-1.263.086-.018.16-.107.121-.318M60.982,59.674A6.368,6.368,0,0,1,55.9,64.156c-4.329,1.075-6.009-2.421-6.626-5.1-1.11-4.823.7-5.683,4.98-6.526,2.79-.547,6.449-.272,6.968,2.2A11.532,11.532,0,0,1,60.982,59.674ZM76.7,55.742c-.083,2.173-1.01,3.486-3.475,4.1a5.043,5.043,0,0,1-5.848-2.129,12.416,12.416,0,0,1-1.711-3.928C65.182,51.363,67.544,50,70.6,49.4c3.66-.718,5.113-.145,5.675,2.41.021.1.041.2.06.3s.036.2.054.3a17.934,17.934,0,0,1,.319,2.976C76.709,55.508,76.707,55.627,76.7,55.742Zm.175-7.437-1.793.033-2.079-.833.008-.273ZM41.568,58.9l-.777-1.5,5.241-2.614.384,2.111Z" transform="translate(-18.396 -16.409)" fill="#e3a06e"/>
  <path id="Path_32" data-name="Path 32" d="M78.066,49.577c-.111-.6-.161-.884-.292-1.445-.052-.285-.117-.309-.322-.306a52.535,52.535,0,0,0-5.925.344c-4.047.789-6,2.885-8.1,3.311-1.944.4-5.21-.757-8.826-.054-2.755.535-6.723,2.025-7.473,2.173-.407.123-.452.259-.4.672.049.372.18.937.312,1.5.046.2.13.394.366.388.571.09.543.474.794,1.051A37.008,37.008,0,0,0,50.492,62.1c1.494,2.181,4.333,2.324,6.138,1.869,4.785-1.2,5.485-4.78,5.9-8.208.11-1.283.193-2.873,1.14-3.072,1.26-.261,1.611,1.3,2.221,2.328,2.2,3.9,4.067,5.637,7.754,4.708,2.654-.667,3.973-2.026,4.1-5.046,0-.078.008-.156.008-.237a.3.3,0,0,0,0-.042c.01-.818,0-1.657-.03-2.5,0-.163-.01-.328-.019-.491,0-.085,0-.166-.01-.252-.015-.584-.184-1.171.244-1.262.084-.018.158-.106.121-.318M61.409,58.96a6.37,6.37,0,0,1-5.079,4.482c-4.328,1.075-6.009-2.421-6.626-5.1-1.11-4.823.7-5.683,4.98-6.526,2.791-.547,6.449-.271,6.969,2.2A11.526,11.526,0,0,1,61.409,58.96Zm15.722-3.933c-.083,2.174-1.01,3.487-3.475,4.1A5.043,5.043,0,0,1,67.808,57,12.43,12.43,0,0,1,66.1,53.072c-.488-2.422,1.874-3.784,4.932-4.387,3.659-.718,5.112-.145,5.673,2.41.022.1.043.2.061.3s.036.2.054.3a18.043,18.043,0,0,1,.32,2.976C77.137,54.795,77.134,54.913,77.131,55.027Zm.175-7.436-1.792.033-2.08-.833.01-.272ZM41.338,58.5,40.561,57l5.9-2.924.384,2.112Z" transform="translate(-18.396 -16.409)" fill="#191920"/>
  <path id="Path_33" data-name="Path 33" d="M64.124,58.1s-1.728,6.169-1.415,6.915a13.494,13.494,0,0,0,3.223.905l.746-.747-1.587-.9a1.45,1.45,0,0,1-.735-1.2Z" transform="translate(-18.396 -16.409)" fill="#191920"/>
  <path id="Path_34" data-name="Path 34" d="M57.721,73.725a1.517,1.517,0,0,0,1.67-.716s1.581-2.267,2.237-1.938c0,0,.322-1.38,1.067-1.619a5.474,5.474,0,0,1-1.037,2.722s1.015-.567,1.551-3.043c0,0,.448-1.461,2.536-.477a2.974,2.974,0,0,1-1.223,2.834,1.406,1.406,0,0,0,.209-1.253s-1.015,2.089-2.058,2.625a.78.78,0,0,0,.089-.835s-1.4,2.655-5.041,1.7" transform="translate(-18.396 -16.409)" fill="#2d292e"/>
  <path id="Path_35" data-name="Path 35" d="M67.342,68.132s.6-1.716,3.115-.61a10.026,10.026,0,0,1-2.051.429,4.456,4.456,0,0,0,2.422-.339s-.135.725-.52.792a2.779,2.779,0,0,1,2.4-.407,2.183,2.183,0,0,0,1.72-.023,1.772,1.772,0,0,1-1.561,1.109s-.725-.091-.748-.294c0,0,.091.5-.611.52,0,0-.476-.588-.747-.181,0,0-.747.5-1.223-.067,0,0-1.857.34-2.2-.929" transform="translate(-18.396 -16.409)" fill="#2d292e"/>
  <g id="Group_6" data-name="Group 6" transform="translate(-18.396 -16.409)">
    <g id="Group_5" data-name="Group 5" clip-path="url(#clip-path-3)">
      <rect id="Rectangle_3" data-name="Rectangle 3" width="18.264" height="9.666" transform="translate(46.096 40.387)" fill="url(#linear-gradient-3)"/>
    </g>
  </g>
  <path id="Path_37" data-name="Path 37" d="M59.61,73.459a2.489,2.489,0,0,0,1.465-1.529s.1.6-.116.835a4.956,4.956,0,0,0,1.607-1.144,7.415,7.415,0,0,0,1.194-2.059s.364-1.018,1.432-.35c0,0,.331.057-.068,1.1,0,0-.063-.592-.385-.553l-1.414,1.825-.63.232a4.749,4.749,0,0,1-3.085,1.645" transform="translate(-18.396 -16.409)" fill="#5d595a"/>
  <path id="Path_38" data-name="Path 38" d="M69.106,67.428a1.666,1.666,0,0,0-1.379.679s.06,1.018,1.579.679a1.424,1.424,0,0,0,1.038-.619,1.654,1.654,0,0,1-1.5.06s-.519.12-.619-.12c0,0,.379-.679.879-.679" transform="translate(-18.396 -16.409)" fill="#5d595a"/>
  <path id="Path_39" data-name="Path 39" d="M70.206,68.859a2.064,2.064,0,0,1,2.209-.5,1.62,1.62,0,0,0,1.2.091s-.184.313-1.638.056c0,0-.533-.221-1.767.35" transform="translate(-18.396 -16.409)" fill="#5d595a"/>
  <path id="Path_40" data-name="Path 40" d="M76.234,76.962s.769.988-2.47,2.087c0,0,1.921,4.062-.934,6.2,0,0-3.349,1.977-2.745,4.118A4.322,4.322,0,0,0,65.474,88s-6.533,1.264-7.521-.933c0,0,1.537.879,2.195.055,0,0-1.591-2.2-5.544-1.427,0,0-8.29-2.636-8.29-4.667,0,0-1.042-1.317-2.086-.493,0,0-1.262-2.965.879-3.953,0,0,2.085.658,1.647-3.569,0,0,3.843,1.044,3.074,3.843,0,0,.878-1.647,2.525.055a2.471,2.471,0,0,0,1.208,3.129s2.965-1.976,6.424.988c0,0,2.689,2.8,5.434-.933,0,0-1.921.22-.989-1.647,0,0,3.734.275,4.338-2.69,0,0,2.086,2.251,7.466,1.208" transform="translate(-18.396 -16.409)" fill="#2d292e"/>
  <path id="Path_41" data-name="Path 41" d="M68.968,82.805a3.247,3.247,0,0,1-.078,1.508,2.883,2.883,0,0,0-.049,1.463,3,3,0,0,1,.784-1.421c.63-.614,2.069-1.121,2.061-2.81a1.126,1.126,0,0,1,.214,1.022,6.975,6.975,0,0,1-1.009,1.9,1.7,1.7,0,0,0,1.5-1.371c.268-1.292-.307-3.3,1.081-4.493,0,0-2.277,1-2.719,2.543a2.644,2.644,0,0,1-.046-1.447,7.739,7.739,0,0,0-.9,2.29c-.114.947-.416.956-.416.956a5.984,5.984,0,0,0,.066-1.444,4,4,0,0,0-1.273,1.277,3.847,3.847,0,0,0-.169-.659,3.365,3.365,0,0,1-.268,1.516s.282.428,1.221-.827" transform="translate(-18.396 -16.409)" fill="#5d595a"/>
  <path id="Path_42" data-name="Path 42" d="M66.246,83.915a3.242,3.242,0,0,0,1.111,1.023,2.877,2.877,0,0,1,1.058,1.012,2.993,2.993,0,0,0-1.554-.467c-.879,0-2.262.646-3.437-.567a1.127,1.127,0,0,0,.561.88,6.95,6.95,0,0,0,2.048.651A1.7,1.7,0,0,1,64,86.519c-1.094-.735-2.086-2.573-3.914-2.454,0,0,2.327-.878,3.722-.086a2.636,2.636,0,0,0-.979-1.065,7.737,7.737,0,0,1,2.247,1c.744.6.966.392.966.392a5.98,5.98,0,0,1-1.057-.985,3.982,3.982,0,0,1,1.8.023,3.839,3.839,0,0,1-.339-.589,3.35,3.35,0,0,0,1.251.894s.1.5-1.452.263" transform="translate(-18.396 -16.409)" fill="#5d595a"/>
  <path id="Path_43" data-name="Path 43" d="M47.79,75.563s.894,2.983-.63,3.447c0,0,1.889-.266,2.353-1.358,0,0,1.193.165.464,1.657,0,0-.4,3.247,3.977,2.286,0,0,1.624-1.691,7.192,1.259,0,0-3.182-.331-4.176,1.26,0,0-2.552,1.79-4.408-.233s-2.552-1.458-2.552-1.458-2.916-.463-2.486-2.087a2.545,2.545,0,0,0-2.519-1.094s2.917-1.823,2.785-3.679" transform="translate(-18.396 -16.409)" fill="#5d595a"/>
  <path id="Path_44" data-name="Path 44" d="M67.873,81.323s1.491-.5.961-3.427c0,0-.289.067-.617,1.316a9.934,9.934,0,0,0-.344,2.111" transform="translate(-18.396 -16.409)" fill="#5d595a"/>
  <path id="Path_45" data-name="Path 45" d="M102.248,93.472l0-.026h-.03l0-.026h-.03l0-.026h-.03l0-.026h-.03l0-.026h-.03l0-.026h-.03l0-.026h-.03l0-.026h-.03l0-.026h-.03l0-.026h-.03l0-.026h-.03l0-.026h-.03l0-.026h-.03l0-.026h-.03l0-.026h-.03l0-.026h-.03l0-.026h-.03l0-.026h-.03l0-.026h-.03l0-.026h-.031l.005-.026H101.7l.005-.026h-.03l0-.027h-.03l0-.025h-.031l0-.026H101.6l0-.027h-.03l0-.026h-.03l.005-.025h-.031l0-.027h-.031l.006-.026h-.031l0-.026h-.03l0-.025h-.031l.006-.027h-.032l0-.026h-.03l0-.027h-.031l0-.025h-.031l.005-.027h-.03l0-.026h-.031l0-.025h-.031l.006-.027h-.032l0-.025h-.031l0-.027h-.031l0-.026h-.031l.005-.026H101.1l.005-.026h-.031l.005-.026h-.031l0-.026h-.031l0-.026H101l0-.026h-.031l0-.026h-.031l0-.026h-.031l.005-.026h-.031l.005-.026h-.031l.005-.026h-.031l0-.026h-.031l0-.026h-.031l0-.026h-.031l0-.026h-.03l0-.026h-.031l.005-.026h-.031l.005-.026h-.031l0-.026h-.031l0-.026h-.031l0-.026h-.031l0-.026h-.03l0-.026h-.031l.006-.026H100.5l0-.026h-.03l0-.026h-.03l0-.026h-.029l0-.026H100.4l0-.026h-.03l0-.026h-.031l0-.026h-.03l0-.026h-.03l.005-.027h-.031l0-.025h-.029l0-.026h-.031l0-.026h-.03l0-.026h-.03l0-.027h-.031l0-.025h-.03l0-.027h-.03l0-.026h-.03l0-.026h-.03l0-.026h-.03l0-.025h-.03l0-.027h-.03l0-.026h-.03l0-.026H99.9l0-.026h-.03l0-.026h-.03l0-.026h-.03l0-.026H99.8l0-.027h-.03l0-.025h-.031l0-.026h-.03l0-.027H99.7l0-.026H99.67l.005-.025H83.068l0,.019H61.4l.109.442a5.964,5.964,0,0,0-1-.241,27.975,27.975,0,0,0-3.915-.2H49.941l-.1.6h-.016v-.025h-.027v-.027h-.027v-.026h-.026v-.025h-.027v-.027h-.027v-.026h-.027V91.3h-.027v-.025h-.026v-.026h-.027v-.026h-.026V91.2h-.026v-.026h-.027v-.026h-.026v-.027h-.027V91.1H49.43V91.07H49.4v-.026h-.027v-.026h-.026v-.026h-.027v-.025H49.3V90.94h-.026v-.026h-.027v-.026H38.358l-.772,2.386,0,0-.005-.007-.02-.019-.007-.007-.019-.019-.006-.007-.02-.019-.006-.007-.021-.019-.006-.007a.171.171,0,0,0-.019-.019l-.006-.007-.02-.019-.007-.007a.18.18,0,0,0-.02-.019l-.006-.007-.02-.02-.006-.006c-.006-.007-.013-.013-.019-.019l-.007-.007-.02-.02L37.315,93l-.02-.019-.006-.007a.18.18,0,0,0-.02-.019l-.006-.007-.02-.02-.006-.006a.119.119,0,0,0-.02-.019l-.006-.007-.021-.02,0-.006a.18.18,0,0,0-.02-.019l-.006-.007-.02-.02-.006-.006-.02-.02-.006-.006c-.006-.007-.014-.013-.02-.019l-.006-.007a.134.134,0,0,0-.021-.02l-.005-.007c-.006-.007-.014-.012-.02-.019l-.006-.006a.2.2,0,0,0-.021-.02L37,92.691a.2.2,0,0,0-.021-.02l0-.007-.02-.019-.006-.006a.133.133,0,0,0-.021-.02l-.005-.006-.02-.02-.006-.007c-.006-.007-.014-.012-.021-.019l0-.007c-.006-.007-.015-.012-.021-.019l-.005-.006a.132.132,0,0,0-.021-.02l-.005-.007-.021-.019-.005-.007-.021-.019,0-.007c-.006-.007-.014-.012-.021-.019l-.005-.008-.021-.018-.005-.007-.021-.019,0-.008a.18.18,0,0,1-.021-.019l0-.007-.021-.018-.005-.008-.021-.018-.005-.008-.021-.019,0-.006-.021-.019-.005-.008a4.253,4.253,0,0,0-2.513-1.158,27.949,27.949,0,0,0-3.914-.2H23.482L20.75,106.63h.03l0,.026h.03l0,.026h.03l0,.025h.03l0,.027h.03l0,.026h.03l0,.026h.03l0,.026h.03l0,.026h.03l0,.026h.03l0,.026h.03l0,.026h.031l0,.026h.031l-.005.026h.03l0,.026h.031l-.005.026h.031l0,.026H21.2l-.005.026h.031l0,.026h.031l0,.026h.03l0,.026H21.3l0,.026h.03l0,.026h.031l0,.026h.03l0,.027h.031l-.006.025h.031l0,.026h.03l-.005.026h.032l0,.027h.03l0,.026h.031l0,.025h.031l-.005.027h.031l-.006.026h.032l-.005.026h.031l0,.026h.031l-.005.026h.031l0,.026h.031l-.005.026h.031l0,.026h.031l-.005.026H21.8l0,.027h.031l-.005.025h.031l0,.027h.031l-.005.026H21.9l0,.025h.031l0,.027h.03l0,.025h.03l-.005.027H22l0,.026h.031l0,.026h.03l0,.026h.031l-.005.025h.031l0,.027h.03l0,.026h.03l0,.026h.031l0,.026h.03l0,.026h.03l0,.026h.03l0,.026h.031l-.005.026h.03l0,.026h.03l0,.026h.03l0,.026h.03l0,.026h.031l0,.026h.03l0,.026h.031l0,.026h.03l0,.026h.029l0,.026h.031l-.005.026h.03l0,.026H22.6l-.005.026h.03l0,.026h.03l-.005.026h.031l0,.026h.029l0,.026h.03l0,.026h.03l0,.026h.03l0,.026h.031l0,.026h.03l0,.026h.03l0,.026h.03l0,.026h.03l0,.026h.031l0,.026h.03l0,.026h.03l0,.027h.031l-.005.025h.031l0,.026h.031l-.005.027h.03l0,.025h.031l-.005.027h.031l0,.025h.03l0,.027H23.2l0,.026h.031l-.005.026h.031l0,.026h.031l-.005.025h.031l0,.027h.031l-.005.027h.031l0,.025h7.1a22.367,22.367,0,0,0,4.794-.368c.071-.017.138-.04.207-.058l0,.009h.035l-.008.026h.034l-.008.027h.034l-.008.025h.034l-.008.026h.034l-.008.027h.034l-.008.025h.034l-.008.027h.034l-.008.025H35.7l-.008.027h.034l-.008.026h.034l-.008.026h.034l-.008.026H35.8l-.008.025h.034l-.008.027h.034l-.008.027h.035l-.009.025H56.914a22.379,22.379,0,0,0,4.794-.368,4.531,4.531,0,0,0,2.411-1.384v.008h.031l-.005.026h.031l0,.026h.03l0,.026h.031l0,.026h.03l0,.026h.03l0,.026h.031l0,.027h.03l-.005.025h.031l0,.027h.03l0,.026h.03l0,.025h.03l0,.027h.03l0,.025h.03l0,.027h.03l0,.026h.03l0,.026h.03l0,.026h.03l0,.025h.03l0,.027h.03l0,.026h.03l0,.026h.03l0,.026h.03l0,.026h.03l0,.026h.03l0,.026h.03l0,.026h.03l0,.026h.03l0,.026h.03l0,.026H64.9l0,.026h.03l0,.026h.031l-.005.026h.031l-.005.026h.03l0,.026h.03l0,.026h.031l0,.026h.031l0,.026h.03l0,.026h.031l0,.026h.032l-.006.026h.031l-.005.026h.032l-.006.026h.031l0,.026h.03l0,.026h.032l-.006.026h.031l0,.026h.031l-.006.026h.032l-.005.026H65.4l-.006.026h.032l-.005.026h.03l0,.026h.031l-.006.026H65.5l0,.027h.031l-.006.025h.032l0,.026h.031l-.005.027h.031l-.005.025h.031l-.005.027h.031l0,.025h.031l0,.027h.031l0,.026h.031l0,.026h.031l0,.026h.031l-.005.025h.031l0,.027h.03l0,.027h.03l0,.025h7.93l.369-2.109h.012l0,.026H74.2l0,.026h.031l0,.026h.031l0,.026h.031l0,.027h.03l0,.025h.031l-.005.026h.031l-.005.026h.031l0,.027h.031l0,.026h.031l0,.025h.031l0,.027h.031l0,.026h.032l-.006.026h.031l-.005.026h.031l-.005.026h.031l0,.026h.03l0,.026h.032l-.006.026h.031l0,.026h.032l-.006.027h.031l0,.025h.03l-.005.027h.032l-.005.026h.03l0,.025h.032l0,.027h.03l0,.025h.031l0,.027H74.9l0,.026h.031l-.005.026h.031l-.005.026h.03l0,.025h.031l0,.027h.031l0,.026h.03l0,.026h.031l0,.026h.03l0,.026h.03l0,.026h.03l-.005.026h.031l0,.026h.03l0,.026h.03l0,.026h.031l0,.026h.03l0,.026h.03l0,.026h.03l0,.026h.03l0,.026h.03l0,.026h.03l0,.026h.03l0,.026h.03l0,.026h.03l0,.026h.03l0,.026h.03l0,.026h.03l0,.026h.03l0,.026h.03l0,.026h.03l0,.026h.03l0,.026h.03l0,.026h.03l0,.026h.03l0,.026h.03l0,.026h.03l-.005.026h.032l-.006.026h.03l0,.026h.031l0,.027h.031l0,.025h.03l0,.026h.031l0,.027H76l-.005.025h.032l-.005.027h.029l0,.025h.03l0,.027H76.1l0,.026h.031l-.006.026h.032l0,.026h.03l0,.025H76.2l-.005.027h.031l-.005.027h.031l-.006.025H99.523l2.756-15.761Z" transform="translate(-18.396 -16.409)" fill="#96999c" style="mix-blend-mode: multiply;isolation: isolate"/>
  <g id="Group_8" data-name="Group 8" transform="translate(-18.396 -16.409)">
    <g id="Group_7" data-name="Group 7" clip-path="url(#clip-path-4)">
      <rect id="Rectangle_4" data-name="Rectangle 4" width="80.8" height="17.635" transform="translate(20.75 90.869)" fill="url(#linear-gradient-4)"/>
    </g>
  </g>
  <path id="Path_47" data-name="Path 47" d="M20.75,106.629l2.732-15.74h6.651a27.81,27.81,0,0,1,3.915.2,4.241,4.241,0,0,1,2.512,1.158,3.829,3.829,0,0,1,.913,2.734,13.6,13.6,0,0,1-.257,2.4l-.528,3.114a10.861,10.861,0,0,1-1.238,3.862,4.385,4.385,0,0,1-2.8,1.9,22.32,22.32,0,0,1-4.794.368Z" transform="translate(-18.396 -16.409)" fill="#f77d0c"/>
  <path id="Path_48" data-name="Path 48" d="M33.266,106.629l5.091-15.741H49.249l-.4,15.741Z" transform="translate(-18.396 -16.409)" fill="#f77d0c"/>
  <path id="Path_49" data-name="Path 49" d="M47.209,106.629l2.732-15.74h6.651a27.81,27.81,0,0,1,3.915.2,4.244,4.244,0,0,1,2.512,1.158,3.829,3.829,0,0,1,.913,2.734,13.694,13.694,0,0,1-.257,2.4l-.528,3.114a10.922,10.922,0,0,1-1.238,3.862,4.384,4.384,0,0,1-2.805,1.9,22.313,22.313,0,0,1-4.794.368Z" transform="translate(-18.396 -16.409)" fill="#f77d0c"/>
  <path id="Path_50" data-name="Path 50" d="M63.259,106.629l.839-4.8L61.4,90.889h17.22l-6.738,11.78-.693,3.961Z" transform="translate(-18.396 -16.409)" fill="#f77d0c"/>
  <path id="Path_51" data-name="Path 51" d="M73.647,106.629,76.38,90.889h7.654L81.3,106.629Z" transform="translate(-18.396 -16.409)" fill="#f77d0c"/>
  <path id="Path_52" data-name="Path 52" d="M80.336,106.629l2.732-15.761H99.675L96.92,106.629Z" transform="translate(-18.396 -16.409)" fill="#f77d0c"/>
  <path id="Path_53" data-name="Path 53" d="M34.313,92.768a3.042,3.042,0,0,1,1.8.787,2.647,2.647,0,0,1,.571,1.879,12.61,12.61,0,0,1-.236,2.183l-.531,3.128a9.891,9.891,0,0,1-1.062,3.4,3.173,3.173,0,0,1-2.047,1.357,21.457,21.457,0,0,1-4.5.334H22.677l2.3-13.258h5.607a27.189,27.189,0,0,1,3.728.187m-3.02,4.455a.538.538,0,0,0-.2-.472,1.318,1.318,0,0,0-.709-.138h-.964l-.905,5.194h.965a1.475,1.475,0,0,0,.836-.187,1.183,1.183,0,0,0,.363-.8l.57-3.245A3.227,3.227,0,0,0,31.293,97.223Z" transform="translate(-18.396 -16.409)" fill="#ae0720"/>
  <path id="Path_54" data-name="Path 54" d="M48.427,92.581l-.334,13.258H42.9l.176-2.065H41.188l-.531,2.065H35.424l4.289-13.258Zm-6.433,8.006h1.358l.334-3.738h-.727Z" transform="translate(-18.396 -16.409)" fill="#ae0720"/>
  <path id="Path_55" data-name="Path 55" d="M60.771,92.768a3.049,3.049,0,0,1,1.8.787,2.656,2.656,0,0,1,.569,1.879,12.512,12.512,0,0,1-.236,2.183l-.531,3.128a9.847,9.847,0,0,1-1.062,3.4,3.166,3.166,0,0,1-2.046,1.357,21.461,21.461,0,0,1-4.5.334H49.135l2.3-13.258h5.607a27.172,27.172,0,0,1,3.727.187m-3.02,4.455a.538.538,0,0,0-.2-.472,1.314,1.314,0,0,0-.708-.138h-.964l-.9,5.194h.963a1.473,1.473,0,0,0,.836-.187,1.174,1.174,0,0,0,.363-.8l.571-3.245A3.4,3.4,0,0,0,57.751,97.223Z" transform="translate(-18.396 -16.409)" fill="#ae0720"/>
  <path id="Path_56" data-name="Path 56" d="M76.931,92.581l-5.783,10.112L70.6,105.84h-5.41l.63-3.6-2.38-9.659h5.606l-.137,5.941H69.4l1.712-5.941Z" transform="translate(-18.396 -16.409)" fill="#ae0720"/>
  <path id="Path_57" data-name="Path 57" d="M77.876,92.581H83.01l-2.3,13.259H75.575Z" transform="translate(-18.396 -16.409)" fill="#ae0720"/>
  <path id="Path_58" data-name="Path 58" d="M94.046,92.561h4.6L96.327,105.84H88.3l.65-8.715H88.4l-1.514,8.715H82.262l2.3-13.278h8.1L92,101.434h.511Z" transform="translate(-18.396 -16.409)" fill="#ae0720"/>
  <path id="Path_59" data-name="Path 59" d="M33.861,92.316a3.052,3.052,0,0,1,1.8.788,2.646,2.646,0,0,1,.57,1.877,12.59,12.59,0,0,1-.236,2.184l-.531,3.128a9.862,9.862,0,0,1-1.062,3.4,3.164,3.164,0,0,1-2.045,1.358,21.479,21.479,0,0,1-4.506.334H22.225l2.3-13.258h5.606a27.215,27.215,0,0,1,3.728.186m-3.02,4.456a.536.536,0,0,0-.2-.472,1.314,1.314,0,0,0-.708-.138h-.964l-.9,5.194h.964a1.473,1.473,0,0,0,.836-.187,1.179,1.179,0,0,0,.364-.8l.571-3.246A3.553,3.553,0,0,0,30.841,96.772Z" transform="translate(-18.396 -16.409)" fill="#fff"/>
  <path id="Path_60" data-name="Path 60" d="M47.976,92.13l-.335,13.259H42.448l.178-2.066h-1.89l-.531,2.066H34.972L39.261,92.13Zm-6.433,8.006H42.9l.335-3.737h-.728Z" transform="translate(-18.396 -16.409)" fill="#fff"/>
  <path id="Path_61" data-name="Path 61" d="M60.32,92.316a3.055,3.055,0,0,1,1.8.788,2.646,2.646,0,0,1,.57,1.877,12.59,12.59,0,0,1-.236,2.184l-.531,3.128a9.883,9.883,0,0,1-1.062,3.4,3.171,3.171,0,0,1-2.046,1.358,21.468,21.468,0,0,1-4.5.334H48.684l2.3-13.258h5.607a27.215,27.215,0,0,1,3.728.186M57.3,96.772a.538.538,0,0,0-.2-.472,1.32,1.32,0,0,0-.709-.138h-.964l-.9,5.194h.964a1.477,1.477,0,0,0,.837-.187,1.174,1.174,0,0,0,.363-.8l.571-3.246A3.364,3.364,0,0,0,57.3,96.772Z" transform="translate(-18.396 -16.409)" fill="#fff"/>
  <path id="Path_62" data-name="Path 62" d="M76.48,92.13,70.7,102.241l-.551,3.147h-5.41l.63-3.6-2.38-9.658h5.606l-.138,5.941h.493l1.711-5.941Z" transform="translate(-18.396 -16.409)" fill="#fff"/>
  <path id="Path_63" data-name="Path 63" d="M77.425,92.13h5.134l-2.3,13.259H75.123Z" transform="translate(-18.396 -16.409)" fill="#fff"/>
  <path id="Path_64" data-name="Path 64" d="M93.595,92.11h4.6l-2.322,13.278H87.85l.649-8.714h-.551l-1.515,8.714H81.811l2.3-13.278h8.1l-.669,8.872h.512Z" transform="translate(-18.396 -16.409)" fill="#fff"/>
  <path id="Path_65" data-name="Path 65" d="M21.75,60.4l.578,1.6.849-.306-.494-1.373.627-.226.494,1.373,1.389-.5.256.71-3.5,1.26-.834-2.314Z" transform="translate(-18.396 -16.409)" fill="#fff"/>
  <path id="Path_66" data-name="Path 66" d="M23.673,55.394l-1.15,1.021.1.526,1.3-.253.144.74-3.65.712-.3-1.557a1.121,1.121,0,0,1,.94-1.437,1.033,1.033,0,0,1,1.193.52l1.257-1.13Zm-1.707,1.675-.141-.725A.484.484,0,0,0,21.2,55.9a.478.478,0,0,0-.413.631l.144.736Z" transform="translate(-18.396 -16.409)" fill="#fff"/>
  <path id="Path_67" data-name="Path 67" d="M20.176,50.166l.061,1.759.792-.027-.052-1.514.666-.023.052,1.514.919-.031-.062-1.787.667-.022.087,2.541-3.714.127L19.5,50.189Z" transform="translate(-18.396 -16.409)" fill="#fff"/>
  <path id="Path_68" data-name="Path 68" d="M20.587,45.1l-.21,1.749.787.094.181-1.5.662.08-.181,1.5.912.11.214-1.776.663.08-.3,2.525-3.692-.444.3-2.5Z" transform="translate(-18.396 -16.409)" fill="#fff"/>
  <path id="Path_69" data-name="Path 69" d="M24.009,43.413l-3.572-1.03.384-1.334c.355-1.229,1.208-1.365,2.217-1.074s1.71.875,1.355,2.1Zm-.256-1.519c.195-.677-.226-.953-.935-1.157s-1.156-.18-1.35.5l-.176.61,2.285.658Z" transform="translate(-18.396 -16.409)" fill="#fff"/>
  <path id="Path_70" data-name="Path 70" d="M23.861,37.8c-.945-.459-1.544-1.14-.974-2.315s1.474-1.12,2.419-.661,1.595,1.158,1.025,2.333-1.517,1.106-2.47.643m.346-.714c.664.322,1.237.456,1.558-.2s-.141-1.024-.805-1.346-1.187-.436-1.507.222S23.543,36.764,24.207,37.086Z" transform="translate(-18.396 -16.409)" fill="#fff"/>
  <path id="Path_71" data-name="Path 71" d="M28.138,31.648l.006-.009-1.467-2.166.589-.8,2.995,2.2-.444.6-1.9-1.4-.006.009L29.286,32.2l-.325.441-2.414-.7-.006.009,1.9,1.4-.434.591-2.995-2.2.593-.806Z" transform="translate(-18.396 -16.409)" fill="#fff"/>
  <path id="Path_72" data-name="Path 72" d="M33.585,23.618l-1.328,1.07.566.7,1.136-.917.419.519-1.136.917.927,1.148-.587.474-2.334-2.893L33.162,23.1Z" transform="translate(-18.396 -16.409)" fill="#fff"/>
  <path id="Path_73" data-name="Path 73" d="M38.948,23.809l-1.339-.756-.464.267.659,1.147-.653.378-1.856-3.224,1.376-.791a1.12,1.12,0,0,1,1.663.423,1.035,1.035,0,0,1-.1,1.3l1.477.821Zm-2.139-1.072.639-.369a.525.525,0,1,0-.513-.915l-.649.374Z" transform="translate(-18.396 -16.409)" fill="#fff"/>
  <path id="Path_74" data-name="Path 74" d="M40.687,20.827c-.365-.984-.329-1.889.9-2.345s1.839.209,2.2,1.193.353,1.938-.871,2.394-1.859-.248-2.229-1.242m.743-.276c.258.692.581,1.183,1.267.928s.6-.837.347-1.528-.556-1.135-1.242-.879S41.173,19.859,41.43,20.551Z" transform="translate(-18.396 -16.409)" fill="#fff"/>
  <path id="Path_75" data-name="Path 75" d="M48.027,19.332l.011,0,.432-2.579.98-.173.647,3.66-.738.13-.411-2.325-.01,0-.462,2.479-.538.1-1.261-2.176-.011,0,.41,2.325-.72.127-.647-3.66.985-.174Z" transform="translate(-18.396 -16.409)" fill="#fff"/>
  <path id="Path_76" data-name="Path 76" d="M57.514,17.285l-1.7-.143-.075.9,1.455.122-.056.664L55.682,18.7l-.124,1.471-.752-.064.312-3.7,2.451.205Z" transform="translate(-18.396 -16.409)" fill="#fff"/>
  <path id="Path_77" data-name="Path 77" d="M59.5,18.753c.25-1.02.79-1.749,2.059-1.436s1.4,1.208,1.153,2.227-.8,1.8-2.068,1.489-1.4-1.251-1.144-2.28m.77.189c-.177.717-.187,1.305.525,1.48s.97-.351,1.146-1.068.18-1.252-.532-1.427S60.447,18.225,60.27,18.942Z" transform="translate(-18.396 -16.409)" fill="#fff"/>
  <path id="Path_78" data-name="Path 78" d="M66.294,18.917,65.1,21.724l1.6.678-.261.614-2.29-.972L65.6,18.622Z" transform="translate(-18.396 -16.409)" fill="#fff"/>
  <path id="Path_79" data-name="Path 79" d="M70.821,21.176l-1.594,2.6,1.477.905-.349.569-2.121-1.3,1.943-3.169Z" transform="translate(-18.396 -16.409)" fill="#fff"/>
  <path id="Path_80" data-name="Path 80" d="M72.912,24.746c.677-.8,1.484-1.216,2.482-.374s.721,1.7.045,2.507-1.515,1.26-2.514.417-.7-1.74-.013-2.55m.6.51c-.476.564-.746,1.087-.186,1.56s1.026.115,1.5-.448.716-1.042.156-1.515S73.994,24.693,73.517,25.256Z" transform="translate(-18.396 -16.409)" fill="#fff"/>
  <path id="Path_81" data-name="Path 81" d="M78.933,29.788,76.6,30.938l-.6-.749,2.341-3.061.526.651-1.8,2.213,0,0,2.548-1.29.553.685-1.791,2.23,0,0,2.535-1.307.5.616-3.484,1.645-.6-.749L78.94,29.8Z" transform="translate(-18.396 -16.409)" fill="#fff"/>
  <path id="Path_82" data-name="Path 82" d="M82.771,38.731l2.218-.932.291.691-2.218.932a1.466,1.466,0,0,1-1.133-2.7l2.218-.932.292.7-2.218.932a.711.711,0,1,0,.55,1.31" transform="translate(-18.396 -16.409)" fill="#fff"/>
  <path id="Path_83" data-name="Path 83" d="M83.956,42.375l-1.276.307-.175-.734,3.614-.869.371,1.542a1.2,1.2,0,1,1-2.339.562Zm.649-.156.176.728a.533.533,0,1,0,1.036-.249l-.175-.728Z" transform="translate(-18.396 -16.409)" fill="#fff"/>
</svg>
