<svg width="16" height="16" viewBox="0 0 16 16" fill="none" xmlns="http://www.w3.org/2000/svg">
<path d="M15.4802 7.57118L14.737 6.67467L15.1686 5.59293C15.2262 5.44841 15.1726 5.2833 15.041 5.20024L14.0562 4.57827L14.1305 3.41597C14.1405 3.26088 14.0385 3.1207 13.8878 3.08236L12.7593 2.79533L12.4722 1.66675C12.4339 1.51616 12.2936 1.41335 12.1387 1.42408L10.9763 1.49832L10.3543 0.513558C10.2712 0.381952 10.1061 0.328483 9.96163 0.386023L8.87986 0.81757L7.98335 0.0743245C7.86383 -0.0247748 7.69067 -0.0247748 7.57115 0.0743245L6.67467 0.81757L5.59293 0.386053C5.44845 0.328544 5.28333 0.382013 5.20024 0.513588L4.57827 1.49835L3.41597 1.42408C3.26045 1.41372 3.1207 1.51616 3.08239 1.66675L2.79533 2.79533L1.66675 3.08236C1.51613 3.12067 1.41414 3.26088 1.42404 3.41597L1.49835 4.57833L0.513558 5.2003C0.381982 5.28336 0.328362 5.44848 0.386023 5.59299L0.817539 6.67476L0.0743245 7.57127C-0.0247748 7.69079 -0.0247748 7.86395 0.0743245 7.98347L0.817539 8.87998L0.385992 9.96172C0.328331 10.1063 0.381952 10.2714 0.513527 10.3544L1.49835 10.9764L1.42404 12.1387C1.41411 12.2938 1.5161 12.4339 1.66672 12.4723L2.7953 12.7593L3.08236 13.8879C3.12064 14.0385 3.26045 14.1405 3.41591 14.1306L4.57827 14.0563L5.20024 15.0411C5.28333 15.1727 5.44851 15.2262 5.59293 15.1686L6.6747 14.7371L7.57121 15.4803C7.63097 15.5299 7.70416 15.5546 7.77731 15.5546C7.85047 15.5546 7.92368 15.5299 7.98344 15.4803L8.87992 14.7371L9.96169 15.1686C10.1062 15.2262 10.2713 15.1727 10.3544 15.0411L10.9763 14.0563L12.1387 14.1306C12.2941 14.1404 12.4339 14.0385 12.4722 13.8879L12.7593 12.7593L13.8878 12.4723C14.0385 12.434 14.1405 12.2938 14.1305 12.1387L14.0562 10.9763L15.0411 10.3544C15.1726 10.2713 15.2263 10.1062 15.1686 9.96166L14.7371 8.87992L15.4803 7.98341C15.5793 7.86389 15.5793 7.69073 15.4802 7.57118ZM14.1174 8.61531C14.0419 8.7063 14.0222 8.83125 14.0661 8.94108L14.4692 9.9516L13.5493 10.5326C13.4494 10.5957 13.3919 10.7083 13.3995 10.8262L13.4689 11.9124L12.414 12.1806C12.2993 12.2098 12.2098 12.2994 12.1806 12.414L11.9124 13.4689L10.8262 13.3995C10.7078 13.3919 10.5957 13.4494 10.5326 13.5493L9.95163 14.4692L8.94105 14.066C8.83116 14.0222 8.70627 14.0419 8.61528 14.1174L7.77725 14.8122L6.93922 14.1174C6.88025 14.0685 6.8071 14.0431 6.73303 14.0431C6.69269 14.0431 6.65213 14.0506 6.61342 14.066L5.6029 14.4692L5.02194 13.5493C4.95887 13.4494 4.84619 13.3916 4.72832 13.3995L3.64218 13.4689L3.37389 12.414C3.34473 12.2994 3.2552 12.2098 3.14051 12.1806L2.08566 11.9124L2.15508 10.8262C2.16261 10.7083 2.10516 10.5957 2.00524 10.5326L1.08534 9.95163L1.48848 8.9411C1.53226 8.83131 1.5126 8.70633 1.43714 8.61534L0.742349 7.77731L1.43711 6.93928C1.51257 6.84829 1.53226 6.72334 1.48845 6.61352L1.08531 5.60299L2.00521 5.02203C2.1051 4.9589 2.16258 4.84628 2.15505 4.72838L2.08563 3.64224L3.14048 3.37395C3.25517 3.34476 3.34469 3.25523 3.37386 3.14057L3.64214 2.08572L4.72826 2.15514C4.84656 2.16322 4.95884 2.10519 5.02191 2.0053L5.60287 1.08543L6.61345 1.48857C6.72334 1.53238 6.84823 1.51266 6.93922 1.43723L7.77725 0.74244L8.61531 1.4372C8.70633 1.51266 8.83128 1.53244 8.94108 1.48854L9.9516 1.0854L10.5326 2.00527C10.5956 2.10519 10.7086 2.16282 10.8262 2.15511L11.9123 2.08572L12.1806 3.14057C12.2098 3.25523 12.2993 3.34479 12.414 3.37395L13.4688 3.64224L13.3994 4.72835C13.3919 4.84628 13.4493 4.9589 13.5493 5.022L14.4692 5.60296L14.066 6.61349C14.0222 6.72328 14.0419 6.84826 14.1174 6.93925L14.8122 7.77728L14.1174 8.61531Z" fill="#03256C"/>
<path d="M12.8755 5.5L11.2705 8.61285V10.0625H9.99559V8.61285L8.39062 5.5H9.84027L10.6428 7.26028L11.4452 5.5H12.8755Z" fill="#03256C"/>
<path d="M8.00584 5.5V10.0625H6.7374V7.54504L5.87667 10.0625H4.81533L3.94813 7.52562V10.0625H2.67969V5.5H4.21346L5.35894 8.46401L6.47853 5.5H8.00584Z" fill="#03256C"/>
</svg>
