<svg width="35" height="35" viewBox="0 0 35 35" fill="none" xmlns="http://www.w3.org/2000/svg">
<circle cx="17.5" cy="17.5" r="17.5" fill="#F2F2F2"/>
<path d="M24.6303 10.372C24.4116 10.1533 24.057 10.1533 23.8383 10.372L17.5026 16.7077L11.1669 10.3721C10.9482 10.1534 10.5937 10.1534 10.375 10.3721C10.1563 10.5907 10.1563 10.9453 10.375 11.164L16.7106 17.4997L10.375 23.8353C10.1563 24.054 10.1563 24.4086 10.375 24.6273C10.5937 24.846 10.9482 24.846 11.1669 24.6273L17.5026 18.2916L23.8383 24.6273C24.057 24.846 24.4115 24.846 24.6302 24.6273C24.8489 24.4086 24.8489 24.0541 24.6302 23.8354L18.2946 17.4997L24.6303 11.164C24.849 10.9453 24.849 10.5907 24.6303 10.372V10.372Z" fill="black"/>
</svg>
