<svg width="26" height="19" viewBox="0 0 26 19" fill="none" xmlns="http://www.w3.org/2000/svg">
<path d="M13.7812 14.2188H13.5V1.84375C13.5 1.76916 13.4704 1.69762 13.4176 1.64488C13.3649 1.59213 13.2933 1.5625 13.2188 1.5625H0.84375C0.769158 1.5625 0.697621 1.59213 0.644876 1.64488C0.592132 1.69762 0.5625 1.76916 0.5625 1.84375V14.2188H0.28125C0.206658 14.2188 0.135121 14.2484 0.0823763 14.3011C0.0296317 14.3539 0 14.4254 0 14.5V15.9062C0 15.9808 0.0296317 16.0524 0.0823763 16.1051C0.135121 16.1579 0.206658 16.1875 0.28125 16.1875H1.40625V17.0312C1.40625 17.4042 1.55441 17.7619 1.81813 18.0256C2.08185 18.2893 2.43954 18.4375 2.8125 18.4375C3.18546 18.4375 3.54315 18.2893 3.80687 18.0256C4.07059 17.7619 4.21875 17.4042 4.21875 17.0312V16.1875H9.84375V17.0312C9.84375 17.4042 9.99191 17.7619 10.2556 18.0256C10.5194 18.2893 10.877 18.4375 11.25 18.4375C11.623 18.4375 11.9806 18.2893 12.2444 18.0256C12.5081 17.7619 12.6562 17.4042 12.6562 17.0312V16.1875H13.7812C13.8558 16.1875 13.9274 16.1579 13.9801 16.1051C14.0329 16.0524 14.0625 15.9808 14.0625 15.9062V14.5C14.0625 14.4254 14.0329 14.3539 13.9801 14.3011C13.9274 14.2484 13.8558 14.2188 13.7812 14.2188ZM1.125 2.125H12.9375V14.2188H12.6562V12.8125C12.656 12.4955 12.5792 12.1833 12.4323 11.9024C12.2854 11.6215 12.0727 11.3803 11.8125 11.1993V7.75C11.8121 7.37718 11.6638 7.01975 11.4001 6.75612C11.1365 6.4925 10.7791 6.3442 10.4062 6.34375V4.9375C10.4062 4.86291 10.3766 4.79137 10.3239 4.73863C10.2711 4.68588 10.1996 4.65625 10.125 4.65625C10.0504 4.65625 9.97887 4.68588 9.92613 4.73863C9.87338 4.79137 9.84375 4.86291 9.84375 4.9375V6.34375H3.9375V4.9375C3.9375 4.86291 3.90787 4.79137 3.85512 4.73863C3.80238 4.68588 3.73084 4.65625 3.65625 4.65625C3.58166 4.65625 3.51012 4.68588 3.45738 4.73863C3.40463 4.79137 3.375 4.86291 3.375 4.9375V6.37188C3.05758 6.43715 2.77238 6.60986 2.56745 6.8609C2.36252 7.11193 2.25041 7.42594 2.25 7.75V11.1993C1.98976 11.3803 1.77713 11.6215 1.63022 11.9024C1.48331 12.1833 1.40647 12.4955 1.40625 12.8125V14.2188H1.125V2.125ZM8.71875 13.375H5.34375V13.0938H8.71875V13.375ZM5.34375 13.9375H8.71875V14.2188H5.34375V13.9375ZM9.28125 12.8125C9.28125 12.7379 9.25162 12.6664 9.19887 12.6136C9.14613 12.5609 9.07459 12.5312 9 12.5312H5.0625C4.98791 12.5312 4.91637 12.5609 4.86363 12.6136C4.81088 12.6664 4.78125 12.7379 4.78125 12.8125V14.2188H1.96875V12.8125C1.9692 12.4397 2.1175 12.0823 2.38112 11.8186C2.64475 11.555 3.00218 11.4067 3.375 11.4062H10.6875C11.0603 11.4067 11.4177 11.555 11.6814 11.8186C11.945 12.0823 12.0933 12.4397 12.0938 12.8125V14.2188H9.28125V12.8125ZM3.65625 6.90625H10.4062C10.63 6.90625 10.8446 6.99514 11.0029 7.15338C11.1611 7.31161 11.25 7.52622 11.25 7.75V10.9281C11.0676 10.8727 10.8781 10.8443 10.6875 10.8438H3.375C3.18439 10.8443 2.99489 10.8727 2.8125 10.9281V7.75C2.8125 7.52622 2.90139 7.31161 3.05963 7.15338C3.21786 6.99514 3.43247 6.90625 3.65625 6.90625ZM3.65625 17.0312C3.65625 17.255 3.56736 17.4696 3.40912 17.6279C3.25089 17.7861 3.03628 17.875 2.8125 17.875C2.58872 17.875 2.37411 17.7861 2.21588 17.6279C2.05764 17.4696 1.96875 17.255 1.96875 17.0312V16.1875H3.65625V17.0312ZM12.0938 17.0312C12.0938 17.255 12.0049 17.4696 11.8466 17.6279C11.6884 17.7861 11.4738 17.875 11.25 17.875C11.0262 17.875 10.8116 17.7861 10.6534 17.6279C10.4951 17.4696 10.4062 17.255 10.4062 17.0312V16.1875H12.0938V17.0312ZM13.5 15.625H0.5625V14.7812H13.5V15.625Z" fill="#03256C"/>
<path d="M3.375 12.25C3.20812 12.25 3.04499 12.2995 2.90624 12.3922C2.76748 12.4849 2.65934 12.6167 2.59548 12.7709C2.53162 12.925 2.51491 13.0947 2.54746 13.2584C2.58002 13.422 2.66038 13.5724 2.77838 13.6904C2.89638 13.8084 3.04672 13.8887 3.21039 13.9213C3.37406 13.9538 3.54371 13.9371 3.69789 13.8733C3.85206 13.8094 3.98384 13.7013 4.07655 13.5625C4.16927 13.4238 4.21875 13.2606 4.21875 13.0938C4.21875 12.87 4.12986 12.6554 3.97162 12.4971C3.81339 12.3389 3.59878 12.25 3.375 12.25ZM3.375 13.375C3.31937 13.375 3.265 13.3585 3.21875 13.3276C3.17249 13.2967 3.13645 13.2528 3.11516 13.2014C3.09387 13.15 3.0883 13.0934 3.09915 13.0389C3.11001 12.9843 3.13679 12.9342 3.17613 12.8949C3.21546 12.8555 3.26557 12.8288 3.32013 12.8179C3.37469 12.8071 3.43124 12.8126 3.48263 12.8339C3.53402 12.8552 3.57795 12.8912 3.60885 12.9375C3.63976 12.9837 3.65625 13.0381 3.65625 13.0938C3.65625 13.1683 3.62662 13.2399 3.57387 13.2926C3.52113 13.3454 3.44959 13.375 3.375 13.375Z" fill="#03256C"/>
<path d="M10.6875 12.25C10.5206 12.25 10.3575 12.2995 10.2187 12.3922C10.08 12.4849 9.97184 12.6167 9.90798 12.7709C9.84412 12.925 9.82741 13.0947 9.85996 13.2584C9.89252 13.422 9.97288 13.5724 10.0909 13.6904C10.2089 13.8084 10.3592 13.8887 10.5229 13.9213C10.6866 13.9538 10.8562 13.9371 11.0104 13.8733C11.1646 13.8094 11.2963 13.7013 11.3891 13.5625C11.4818 13.4238 11.5313 13.2606 11.5313 13.0938C11.5313 12.87 11.4424 12.6554 11.2841 12.4971C11.1259 12.3389 10.9113 12.25 10.6875 12.25ZM10.6875 13.375C10.6319 13.375 10.5775 13.3585 10.5312 13.3276C10.485 13.2967 10.4489 13.2528 10.4277 13.2014C10.4064 13.15 10.4008 13.0934 10.4117 13.0389C10.4225 12.9843 10.4493 12.9342 10.4886 12.8949C10.528 12.8555 10.5781 12.8288 10.6326 12.8179C10.6872 12.8071 10.7437 12.8126 10.7951 12.8339C10.8465 12.8552 10.8904 12.8912 10.9214 12.9375C10.9523 12.9837 10.9688 13.0381 10.9688 13.0938C10.9688 13.1683 10.9391 13.2399 10.8864 13.2926C10.8336 13.3454 10.7621 13.375 10.6875 13.375Z" fill="#03256C"/>
<path d="M3.65625 10.2812H10.4062C10.4808 10.2812 10.5524 10.2516 10.6051 10.1989C10.6579 10.1461 10.6875 10.0746 10.6875 10V7.75C10.6875 7.67541 10.6579 7.60387 10.6051 7.55113C10.5524 7.49838 10.4808 7.46875 10.4062 7.46875H3.65625C3.58166 7.46875 3.51012 7.49838 3.45738 7.55113C3.40463 7.60387 3.375 7.67541 3.375 7.75V10C3.375 10.0746 3.40463 10.1461 3.45738 10.1989C3.51012 10.2516 3.58166 10.2812 3.65625 10.2812ZM3.9375 8.03125H10.125V9.71875H3.9375V8.03125Z" fill="#03256C"/>
<line x1="1.28125" y1="0.75" x2="24.7812" y2="0.75" stroke="#03256C" stroke-width="0.5" stroke-linecap="round"/>
<line x1="14.2812" y1="13.75" x2="24.7812" y2="13.75" stroke="#03256C" stroke-width="0.5" stroke-linecap="round"/>
<line x1="15.2812" y1="10.75" x2="22.7812" y2="10.75" stroke="#03256C" stroke-width="0.5" stroke-linecap="round"/>
<line x1="14.2812" y1="11.75" x2="24.2812" y2="11.75" stroke="#03256C" stroke-width="0.5" stroke-linecap="round"/>
<line x1="14.2812" y1="2.25" x2="24.2812" y2="2.25" stroke="#03256C" stroke-width="0.5" stroke-linecap="round"/>
<line x1="14.2812" y1="2.25" x2="14.2812" y2="11.75" stroke="#03256C" stroke-width="0.5" stroke-linecap="round"/>
<line x1="24.2812" y1="2.25" x2="24.2812" y2="11.75" stroke="#03256C" stroke-width="0.5" stroke-linecap="round"/>
</svg>
