<svg width="18" height="18" viewBox="0 0 18 18" fill="none" xmlns="http://www.w3.org/2000/svg">
<path d="M3.0904 13.6289C2.38147 13.6289 1.80469 14.2633 1.80469 15.0433C1.80469 15.8231 2.38147 16.4575 3.0904 16.4575C3.79933 16.4575 4.37612 15.8231 4.37612 15.0433C4.37612 14.2633 3.79933 13.6289 3.0904 13.6289ZM3.0904 15.9128C2.65454 15.9128 2.29995 15.5227 2.29995 15.0433C2.29995 14.5636 2.65454 14.1736 3.0904 14.1736C3.52639 14.1736 3.88098 14.5636 3.88098 15.0433C3.88098 15.5227 3.52639 15.9128 3.0904 15.9128Z" fill="#03256C"/>
<path d="M10.1565 13.6289C9.37665 13.6289 8.74219 14.2633 8.74219 15.0433C8.74219 15.8231 9.37665 16.4575 10.1565 16.4575C10.9363 16.4575 11.5708 15.8231 11.5708 15.0433C11.5708 14.2633 10.9363 13.6289 10.1565 13.6289ZM10.1565 15.9128C9.67702 15.9128 9.28683 15.5227 9.28683 15.0433C9.28683 14.5636 9.67702 14.1736 10.1565 14.1736C10.6359 14.1736 11.0261 14.5636 11.0261 15.0433C11.0261 15.5227 10.6359 15.9128 10.1565 15.9128Z" fill="#03256C"/>
<path d="M18 7.10241V3.6677C18 3.05889 17.5037 2.56356 16.8935 2.56356H13.4521C13.2429 2.56356 13.0472 2.6218 12.8804 2.72268V0.266854C12.8804 0.119516 12.7606 0 12.613 0H11.4984C11.3507 0 11.231 0.119516 11.231 0.266854V3.27558C11.231 3.42292 11.4011 3.34205 11.5488 3.34205C11.6965 3.34205 11.7657 3.42292 11.7657 3.27558V0.533571H12.3456V12.2121C12.3456 12.8209 12.8421 13.3164 13.4521 13.3164H15.0973V13.8955H12.6027C12.4077 13.5035 12.1189 13.1663 11.7657 12.9125V3.27558C11.7657 3.12824 11.6461 3.00872 11.4983 3.00872C11.3507 3.00872 11.231 3.12824 11.231 3.27558V11.5309H10.4915L7.58661 3.4077C7.40602 2.90278 6.92386 2.56356 6.38663 2.56356H1.86713C1.16469 2.56356 0.593124 3.13386 0.593124 3.83505V10.6446C0.593124 10.7919 0.712738 10.6118 0.860504 10.6118C1.00813 10.6118 1.12572 10.7261 1.12572 10.5788L1.12775 3.83505C1.12775 3.42812 1.45953 3.09713 1.86713 3.09713H6.38663C6.69836 3.09713 6.97824 3.29394 7.08302 3.58698L9.92381 11.5309H1.12775V10.6118C1.12775 10.4645 1.00813 10.345 0.860504 10.345C0.712738 10.345 0.593124 10.4645 0.593124 10.6118V11.5309H0.26738C0.119751 11.5309 0 11.6504 0 11.7978V15.0769C0 15.2243 0.119751 15.3438 0.26738 15.3438H0.434097C0.568543 16.6889 1.70906 17.7429 3.09169 17.7429C4.47446 17.7429 5.61498 16.6889 5.74942 15.3438H7.55145C7.68604 16.6889 8.82655 17.7429 10.2092 17.7429C11.682 17.7429 12.8802 16.547 12.8802 15.0771C12.8802 14.8535 12.8522 14.6365 12.8 14.429H15.3647C15.5123 14.429 15.6319 14.3097 15.6319 14.1622V13.3164H16.8935C17.5037 13.3164 18 12.8211 18 12.2121V8.77741C18 8.44271 17.8499 8.14255 17.6134 7.93998C17.8499 7.73726 18 7.43711 18 7.10241ZM11.231 12.0645V12.6142C10.916 12.4836 10.571 12.4111 10.2092 12.4111C8.82655 12.4111 7.68604 13.465 7.55145 14.8101H5.74942C5.61484 13.465 4.47432 12.4111 3.09169 12.4111C1.88704 12.4111 0.866409 13.2114 0.534622 14.3072V12.0645H11.231ZM3.09169 17.2093C1.91368 17.2093 0.955261 16.2528 0.955261 15.0771C0.955261 13.9012 1.91368 12.9447 3.09169 12.9447C4.26984 12.9447 5.22826 13.9012 5.22826 15.0771C5.22826 16.2528 4.26984 17.2093 3.09169 17.2093ZM10.2092 17.2093C9.03117 17.2093 8.07275 16.2528 8.07275 15.0771C8.07275 13.9012 9.03117 12.9447 10.2092 12.9447C11.3872 12.9447 12.3456 13.9012 12.3456 15.0771C12.3456 16.2528 11.3872 17.2093 10.2092 17.2093ZM17.4654 8.77741V12.2121C17.4654 12.5268 17.2088 12.7828 16.8935 12.7828L13.4521 12.7827C13.4518 12.7827 13.4517 12.7827 13.4514 12.7827C13.1365 12.7824 12.8804 12.5265 12.8804 12.2121V8.77741C12.8804 8.46272 13.1368 8.20669 13.4521 8.20669H16.8935C17.2088 8.20669 17.4654 8.46272 17.4654 8.77741ZM13.4521 7.67312C13.1368 7.67312 12.8804 7.41709 12.8804 7.10254V3.6677C12.8804 3.35315 13.1368 3.09713 13.4521 3.09713H16.8935C17.2088 3.09713 17.4654 3.35315 17.4654 3.6677V7.10241C17.4654 7.41709 17.2088 7.67312 16.8935 7.67312H13.4521Z" fill="#03256C"/>
<path d="M6.16582 4.54687C6.12639 4.44143 6.02189 4.37109 5.90471 4.37109H2.5897C2.43665 4.37109 2.3125 4.48973 2.3125 4.63598V8.73478C2.3125 8.88103 2.43665 8.99967 2.5897 8.99967H7.43536C7.52549 8.99967 7.60991 8.95776 7.66188 8.88743C7.71385 8.81709 7.72666 8.72689 7.69633 8.64581L6.16582 4.54687ZM2.8669 8.47004V4.90072H5.70938L7.04213 8.47004H2.8669Z" fill="#03256C"/>
<path d="M6.42188 9.77088C6.42188 9.91289 6.52935 10.028 6.66184 10.028H7.72489C7.85738 10.028 7.96473 9.91289 7.96473 9.77088C7.96473 9.62887 7.85738 9.51367 7.72489 9.51367H6.66184C6.52935 9.51367 6.42188 9.62887 6.42188 9.77088Z" fill="#03256C"/>
</svg>
