<svg width="18" height="18" viewBox="0 0 18 18" fill="none" xmlns="http://www.w3.org/2000/svg">
<path fill-rule="evenodd" clip-rule="evenodd" d="M1.74219 12.1406C1.74219 11.995 1.86024 11.877 2.00586 11.877H3.15262C3.85242 11.877 4.41969 12.4442 4.41969 13.144V14.0758C4.41969 14.2214 4.30164 14.3394 4.15602 14.3394H2.00586C1.86024 14.3394 1.74219 14.2214 1.74219 14.0758V12.1406ZM2.26954 12.4043V13.8121H3.89235V13.144C3.89235 12.7355 3.56117 12.4043 3.15262 12.4043H2.26954Z" fill="#03256C"/>
<path fill-rule="evenodd" clip-rule="evenodd" d="M0.995166 0.607622C0.887774 0.500481 0.714338 0.500728 0.607533 0.607533C0.500619 0.714446 0.500619 0.887812 0.607533 0.994725L2.19309 2.58028C2.24254 2.62973 2.27032 2.6968 2.27032 2.76673V11.8768H2.81806V2.55895C2.81806 2.4767 2.7855 2.39796 2.72759 2.34005L0.995233 0.607689C0.995211 0.607666 0.995188 0.607644 0.995166 0.607622ZM0.234642 0.234642C0.547583 -0.0782999 1.05473 -0.0780758 1.36781 0.234486L3.10048 1.96715C3.25773 2.1244 3.34541 2.33746 3.34541 2.55895V12.1405C3.34541 12.2861 3.22735 12.4041 3.08173 12.4041H2.00665C1.86102 12.4041 1.74297 12.2861 1.74297 12.1405V2.87595L0.234642 1.36762C-0.0782138 1.05476 -0.0782138 0.547497 0.234642 0.234642Z" fill="#03256C"/>
<path fill-rule="evenodd" clip-rule="evenodd" d="M1.02344 15.5098C1.02344 15.6554 1.14149 15.7734 1.28711 15.7734H17.4134C17.559 15.7734 17.6771 15.6554 17.6771 15.5098V14.0765C17.6771 13.9308 17.559 13.8128 17.4134 13.8128H8.38626C8.24064 13.8128 8.12259 13.9308 8.12259 14.0765C8.12259 14.2221 8.24064 14.3401 8.38626 14.3401H17.1497V15.2461H1.55079V14.3401H7.15719C7.30282 14.3401 7.42087 14.2221 7.42087 14.0765C7.42087 13.9308 7.30282 13.8128 7.15719 13.8128H1.28711C1.14149 13.8128 1.02344 13.9308 1.02344 14.0765V15.5098Z" fill="#03256C"/>
<path fill-rule="evenodd" clip-rule="evenodd" d="M3.31475 15.7715C2.84536 15.7715 2.46485 16.152 2.46485 16.6214C2.46485 17.0908 2.84536 17.4713 3.31475 17.4713C3.78414 17.4713 4.16465 17.0908 4.16465 16.6214C4.16465 16.152 3.78414 15.7715 3.31475 15.7715ZM1.9375 16.6214C1.9375 15.8608 2.55412 15.2441 3.31475 15.2441C4.07538 15.2441 4.692 15.8608 4.692 16.6214C4.692 17.382 4.07538 17.9986 3.31475 17.9986C2.55412 17.9986 1.9375 17.382 1.9375 16.6214Z" fill="#03256C"/>
<path fill-rule="evenodd" clip-rule="evenodd" d="M15.3851 15.7715C14.9157 15.7715 14.5352 16.152 14.5352 16.6214C14.5352 17.0908 14.9157 17.4713 15.3851 17.4713C15.8544 17.4713 16.235 17.0908 16.235 16.6214C16.235 16.152 15.8545 15.7715 15.3851 15.7715ZM14.0078 16.6214C14.0078 15.8608 14.6244 15.2441 15.3851 15.2441C16.1457 15.2441 16.7623 15.8608 16.7623 16.6214C16.7623 17.382 16.1457 17.9986 15.3851 17.9986C14.6244 17.9986 14.0078 17.382 14.0078 16.6214Z" fill="#03256C"/>
<path fill-rule="evenodd" clip-rule="evenodd" d="M7.24024 8.80273C7.38586 8.80273 7.50391 8.92079 7.50391 9.06641V10.3945L7.79903 10.3158C7.84354 10.3039 7.89039 10.3039 7.93491 10.3158L8.23003 10.3945V9.06641C8.23003 8.92079 8.34808 8.80273 8.4937 8.80273C8.63932 8.80273 8.75737 8.92079 8.75737 9.06641V10.7377C8.75737 10.8196 8.7193 10.8969 8.65434 10.9468C8.58938 10.9967 8.50491 11.0136 8.42576 10.9925L7.86697 10.8435L7.30818 10.9925C7.22902 11.0136 7.14456 10.9967 7.0796 10.9468C7.01464 10.8969 6.97656 10.8196 6.97656 10.7377V9.06641C6.97656 8.92079 7.09461 8.80273 7.24024 8.80273Z" fill="#03256C"/>
<path fill-rule="evenodd" clip-rule="evenodd" d="M5.10156 9.06641C5.10156 8.92079 5.21961 8.80273 5.36524 8.80273H10.3791C10.5247 8.80273 10.6428 8.92079 10.6428 9.06641V14.0803C10.6428 14.2259 10.5247 14.344 10.3791 14.344H5.36524C5.21961 14.344 5.10156 14.2259 5.10156 14.0803V9.06641ZM5.62891 9.33008V13.8166H10.1154V9.33008H5.62891Z" fill="#03256C"/>
<path fill-rule="evenodd" clip-rule="evenodd" d="M12.2559 8.80273C12.4015 8.80273 12.5195 8.92079 12.5195 9.06641V10.3945L12.8147 10.3158C12.8592 10.3039 12.906 10.3039 12.9505 10.3158L13.2457 10.3945V9.06641C13.2457 8.92079 13.3637 8.80273 13.5093 8.80273C13.6549 8.80273 13.773 8.92079 13.773 9.06641V10.7377C13.773 10.8196 13.7349 10.8969 13.67 10.9468C13.605 10.9967 13.5205 11.0136 13.4414 10.9925L12.8826 10.8435L12.3238 10.9925C12.2446 11.0136 12.1602 10.9967 12.0952 10.9468C12.0303 10.8969 11.9922 10.8196 11.9922 10.7377V9.06641C11.9922 8.92079 12.1102 8.80273 12.2559 8.80273Z" fill="#03256C"/>
<path fill-rule="evenodd" clip-rule="evenodd" d="M10.1094 9.06641C10.1094 8.92079 10.2274 8.80273 10.373 8.80273H15.3869C15.5326 8.80273 15.6506 8.92079 15.6506 9.06641V14.0803C15.6506 14.2259 15.5326 14.344 15.3869 14.344H10.373C10.2274 14.344 10.1094 14.2259 10.1094 14.0803V9.06641ZM10.6367 9.33008V13.8166H15.1233V9.33008H10.6367Z" fill="#03256C"/>
<path fill-rule="evenodd" clip-rule="evenodd" d="M12.2559 3.7832C12.4015 3.7832 12.5195 3.90125 12.5195 4.04688V5.375L12.8147 5.2963C12.8592 5.28443 12.906 5.28443 12.9505 5.2963L13.2457 5.375V4.04688C13.2457 3.90125 13.3637 3.7832 13.5093 3.7832C13.6549 3.7832 13.773 3.90125 13.773 4.04688V5.71821C13.773 5.80013 13.7349 5.87739 13.67 5.9273C13.605 5.97721 13.5205 5.99409 13.4414 5.97298L12.8826 5.82396L12.3238 5.97298C12.2446 5.99409 12.1602 5.97721 12.0952 5.9273C12.0303 5.87739 11.9922 5.80013 11.9922 5.71821V4.04688C11.9922 3.90125 12.1102 3.7832 12.2559 3.7832Z" fill="#03256C"/>
<path fill-rule="evenodd" clip-rule="evenodd" d="M15.6484 4.04688C15.6484 3.90125 15.5304 3.7832 15.3848 3.7832H10.3708C10.2251 3.7832 10.1071 3.90125 10.1071 4.04688V5.93825C10.1071 6.08387 10.2251 6.20193 10.3708 6.20193C10.5164 6.20193 10.6344 6.08387 10.6344 5.93825V4.31055H15.1211V8.79684H10.6344V7.16872C10.6344 7.0231 10.5164 6.90505 10.3708 6.90505C10.2251 6.90505 10.1071 7.0231 10.1071 7.16872V9.06052C10.1071 9.20614 10.2251 9.32419 10.3708 9.32419H15.3848C15.5304 9.32419 15.6484 9.20614 15.6484 9.06052V4.04688Z" fill="#03256C"/>
<path fill-rule="evenodd" clip-rule="evenodd" d="M7.24024 3.7832C7.38586 3.7832 7.50391 3.90125 7.50391 4.04688V5.375L7.79903 5.2963C7.84354 5.28443 7.89039 5.28443 7.93491 5.2963L8.23003 5.375V4.04688C8.23003 3.90125 8.34808 3.7832 8.4937 3.7832C8.63932 3.7832 8.75737 3.90125 8.75737 4.04688V5.71821C8.75737 5.80013 8.7193 5.87739 8.65434 5.9273C8.58938 5.97721 8.50491 5.99409 8.42576 5.97298L7.86697 5.82396L7.30818 5.97298C7.22902 5.99409 7.14456 5.97721 7.0796 5.9273C7.01464 5.87739 6.97656 5.80013 6.97656 5.71821V4.04688C6.97656 3.90125 7.09461 3.7832 7.24024 3.7832Z" fill="#03256C"/>
<path fill-rule="evenodd" clip-rule="evenodd" d="M5.10156 4.04688C5.10156 3.90125 5.21961 3.7832 5.36524 3.7832H10.3791C10.5247 3.7832 10.6428 3.90125 10.6428 4.04688V9.06076C10.6428 9.20639 10.5247 9.32444 10.3791 9.32444H5.36524C5.21961 9.32444 5.10156 9.20639 5.10156 9.06076V4.04688ZM5.62891 4.31055V8.79709H10.1154V4.31055H5.62891Z" fill="#03256C"/>
</svg>
