<svg width="26" height="16" viewBox="0 0 26 16" fill="none" xmlns="http://www.w3.org/2000/svg">
<path d="M1.4 9.43687C2.17 9.43687 2.8 8.78887 2.8 7.99687C2.8 7.20487 2.17 6.55687 1.4 6.55687C0.63 6.55687 0 7.20487 0 7.99687C0 8.78887 0.63 9.43687 1.4 9.43687ZM1.4 15.1969C2.17 15.1969 2.8 14.5489 2.8 13.7569C2.8 12.9649 2.17 12.3169 1.4 12.3169C0.63 12.3169 0 12.9649 0 13.7569C0 14.5489 0.63 15.1969 1.4 15.1969ZM1.4 3.67687C2.17 3.67687 2.8 3.02887 2.8 2.23687C2.8 1.44488 2.17 0.796875 1.4 0.796875C0.63 0.796875 0 1.44488 0 2.23687C0 3.02887 0.63 3.67687 1.4 3.67687ZM7 9.43687H23.8C24.57 9.43687 25.2 8.78887 25.2 7.99687C25.2 7.20487 24.57 6.55687 23.8 6.55687H7C6.23 6.55687 5.6 7.20487 5.6 7.99687C5.6 8.78887 6.23 9.43687 7 9.43687ZM7 15.1969H23.8C24.57 15.1969 25.2 14.5489 25.2 13.7569C25.2 12.9649 24.57 12.3169 23.8 12.3169H7C6.23 12.3169 5.6 12.9649 5.6 13.7569C5.6 14.5489 6.23 15.1969 7 15.1969ZM5.6 2.23687C5.6 3.02887 6.23 3.67687 7 3.67687H23.8C24.57 3.67687 25.2 3.02887 25.2 2.23687C25.2 1.44488 24.57 0.796875 23.8 0.796875H7C6.23 0.796875 5.6 1.44488 5.6 2.23687ZM1.4 9.43687C2.17 9.43687 2.8 8.78887 2.8 7.99687C2.8 7.20487 2.17 6.55687 1.4 6.55687C0.63 6.55687 0 7.20487 0 7.99687C0 8.78887 0.63 9.43687 1.4 9.43687ZM1.4 15.1969C2.17 15.1969 2.8 14.5489 2.8 13.7569C2.8 12.9649 2.17 12.3169 1.4 12.3169C0.63 12.3169 0 12.9649 0 13.7569C0 14.5489 0.63 15.1969 1.4 15.1969ZM1.4 3.67687C2.17 3.67687 2.8 3.02887 2.8 2.23687C2.8 1.44488 2.17 0.796875 1.4 0.796875C0.63 0.796875 0 1.44488 0 2.23687C0 3.02887 0.63 3.67687 1.4 3.67687ZM7 9.43687H23.8C24.57 9.43687 25.2 8.78887 25.2 7.99687C25.2 7.20487 24.57 6.55687 23.8 6.55687H7C6.23 6.55687 5.6 7.20487 5.6 7.99687C5.6 8.78887 6.23 9.43687 7 9.43687ZM7 15.1969H23.8C24.57 15.1969 25.2 14.5489 25.2 13.7569C25.2 12.9649 24.57 12.3169 23.8 12.3169H7C6.23 12.3169 5.6 12.9649 5.6 13.7569C5.6 14.5489 6.23 15.1969 7 15.1969ZM5.6 2.23687C5.6 3.02887 6.23 3.67687 7 3.67687H23.8C24.57 3.67687 25.2 3.02887 25.2 2.23687C25.2 1.44488 24.57 0.796875 23.8 0.796875H7C6.23 0.796875 5.6 1.44488 5.6 2.23687Z" fill="#03256C"/>
</svg>
